ISO-10303-21;
HEADER;
/* Generated by software containing ST-Developer
 * from STEP Tools, Inc. (www.steptools.com) 
 */
/* OPTION: using custom renumber hook */

FILE_DESCRIPTION(
/* description */ ('STEP AP242 Edition 2',
'CAx-IF Rec.Pracs.---Representation and Presentation of Product Manufa
cturing Information (PMI)---4.0---2014-10-13',
'CAx-IF Rec.Pracs.---3D Tessellated Geometry---0.4---2014-09-14','2;1',
'CAx-IF Rec.Pracs.---User Defined Attributes---1.5---2016-08-15'),
/* implementation_level */ '2;1');

FILE_NAME(
/* name */ '6a7dfa776343551e63439723',
/* time_stamp */ '2026-08-13T17:10:16Z',
/* author */ (''),
/* organization */ (''),
/* preprocessor_version */ 'ST-DEVELOPER v20',
/* originating_system */ 'ONSHAPE BY PTC INC, 1.219',
/* authorisation */ '  ');

FILE_SCHEMA (('AP242_MANAGED_MODEL_BASED_3D_ENGINEERING_MIM_LF { 1 0 10303 442 3 1 4 }'));
ENDSEC;

DATA;
#10=SHAPE_REPRESENTATION_RELATIONSHIP('','',#584,#11);
#11=ADVANCED_BREP_SHAPE_REPRESENTATION('',(#582),#981);
#12=VERTEX_LOOP('',#427);
#13=B_SPLINE_CURVE_WITH_KNOTS('',3,(#855,#856,#857,#858),.UNSPECIFIED.,
 .F.,.F.,(4,4),(0.063603356277749,0.0641082478017287),.UNSPECIFIED.);
#14=B_SPLINE_CURVE_WITH_KNOTS('',3,(#863,#864,#865,#866),.UNSPECIFIED.,
 .F.,.F.,(4,4),(0.0928307453623384,0.0929662272648805),.UNSPECIFIED.);
#15=B_SPLINE_CURVE_WITH_KNOTS('',3,(#872,#873,#874,#875),.UNSPECIFIED.,
 .F.,.F.,(4,4),(0.103396110900016,0.103531601634519),.UNSPECIFIED.);
#16=B_SPLINE_CURVE_WITH_KNOTS('',3,(#879,#880,#881,#882),.UNSPECIFIED.,
 .F.,.F.,(4,4),(0.0929666000016138,0.0934767904099592),.UNSPECIFIED.);
#17=B_SPLINE_CURVE_WITH_KNOTS('',3,(#886,#887,#888,#889),.UNSPECIFIED.,
 .F.,.F.,(4,4),(0.063603356277749,0.0641082478017287),.UNSPECIFIED.);
#18=B_SPLINE_CURVE_WITH_KNOTS('',3,(#895,#896,#897,#898),.UNSPECIFIED.,
 .F.,.F.,(4,4),(0.0928307453623384,0.0929662272648805),.UNSPECIFIED.);
#19=B_SPLINE_CURVE_WITH_KNOTS('',3,(#906,#907,#908,#909),.UNSPECIFIED.,
 .F.,.F.,(4,4),(0.103396110900016,0.103531601634519),.UNSPECIFIED.);
#20=B_SPLINE_CURVE_WITH_KNOTS('',3,(#915,#916,#917,#918),.UNSPECIFIED.,
 .F.,.F.,(4,4),(0.0929666000016138,0.0934767904099592),.UNSPECIFIED.);
#21=B_SPLINE_CURVE_WITH_KNOTS('',3,(#922,#923,#924,#925),.UNSPECIFIED.,
 .F.,.F.,(4,4),(0.063603356277749,0.0641082478017287),.UNSPECIFIED.);
#22=B_SPLINE_CURVE_WITH_KNOTS('',3,(#928,#929,#930,#931),.UNSPECIFIED.,
 .F.,.F.,(4,4),(0.0928307453623383,0.0929662272648804),.UNSPECIFIED.);
#23=B_SPLINE_CURVE_WITH_KNOTS('',3,(#937,#938,#939,#940),.UNSPECIFIED.,
 .F.,.F.,(4,4),(0.103396110900016,0.103531601634519),.UNSPECIFIED.);
#24=B_SPLINE_CURVE_WITH_KNOTS('',3,(#944,#945,#946,#947),.UNSPECIFIED.,
 .F.,.F.,(4,4),(0.092966600001614,0.0934767904099593),.UNSPECIFIED.);
#25=B_SPLINE_CURVE_WITH_KNOTS('',3,(#951,#952,#953,#954),.UNSPECIFIED.,
 .F.,.F.,(4,4),(0.063603356277749,0.0641082478017287),.UNSPECIFIED.);
#26=B_SPLINE_CURVE_WITH_KNOTS('',3,(#957,#958,#959,#960),.UNSPECIFIED.,
 .F.,.F.,(4,4),(0.0928307453623383,0.0929662272648804),.UNSPECIFIED.);
#27=B_SPLINE_CURVE_WITH_KNOTS('',3,(#966,#967,#968,#969),.UNSPECIFIED.,
 .F.,.F.,(4,4),(0.00608215815216836,0.00621765415097792),.UNSPECIFIED.);
#28=B_SPLINE_CURVE_WITH_KNOTS('',3,(#971,#972,#973,#974),.UNSPECIFIED.,
 .F.,.F.,(4,4),(0.0929666000016139,0.0934767904099593),.UNSPECIFIED.);
#29=TOROIDAL_SURFACE('',#603,0.003,0.001);
#30=CONICAL_SURFACE('',#601,0.0042,0.785398163397448);
#31=CONICAL_SURFACE('',#626,0.001145,1.08129241243483);
#32=CONICAL_SURFACE('',#627,0.00162111388749999,0.785398163397448);
#33=CYLINDRICAL_SURFACE('',#592,0.002);
#34=CYLINDRICAL_SURFACE('',#599,0.0042);
#35=LINE('',#771,#87);
#36=LINE('',#773,#88);
#37=LINE('',#775,#89);
#38=LINE('',#780,#90);
#39=LINE('',#782,#91);
#40=LINE('',#784,#92);
#41=LINE('',#789,#93);
#42=LINE('',#791,#94);
#43=LINE('',#793,#95);
#44=LINE('',#803,#96);
#45=LINE('',#806,#97);
#46=LINE('',#808,#98);
#47=LINE('',#810,#99);
#48=LINE('',#812,#100);
#49=LINE('',#814,#101);
#50=LINE('',#816,#102);
#51=LINE('',#818,#103);
#52=LINE('',#820,#104);
#53=LINE('',#822,#105);
#54=LINE('',#824,#106);
#55=LINE('',#826,#107);
#56=LINE('',#828,#108);
#57=LINE('',#830,#109);
#58=LINE('',#832,#110);
#59=LINE('',#834,#111);
#60=LINE('',#836,#112);
#61=LINE('',#838,#113);
#62=LINE('',#840,#114);
#63=LINE('',#842,#115);
#64=LINE('',#853,#116);
#65=LINE('',#860,#117);
#66=LINE('',#862,#118);
#67=LINE('',#868,#119);
#68=LINE('',#870,#120);
#69=LINE('',#877,#121);
#70=LINE('',#884,#122);
#71=LINE('',#891,#123);
#72=LINE('',#893,#124);
#73=LINE('',#900,#125);
#74=LINE('',#902,#126);
#75=LINE('',#904,#127);
#76=LINE('',#911,#128);
#77=LINE('',#913,#129);
#78=LINE('',#920,#130);
#79=LINE('',#927,#131);
#80=LINE('',#933,#132);
#81=LINE('',#935,#133);
#82=LINE('',#942,#134);
#83=LINE('',#949,#135);
#84=LINE('',#956,#136);
#85=LINE('',#962,#137);
#86=LINE('',#964,#138);
#87=VECTOR('',#634,1.);
#88=VECTOR('',#635,1.);
#89=VECTOR('',#636,1.);
#90=VECTOR('',#641,1.);
#91=VECTOR('',#642,1.);
#92=VECTOR('',#643,1.);
#93=VECTOR('',#648,1.);
#94=VECTOR('',#649,1.);
#95=VECTOR('',#650,1.);
#96=VECTOR('',#663,1.);
#97=VECTOR('',#664,1.);
#98=VECTOR('',#665,1.);
#99=VECTOR('',#666,1.);
#100=VECTOR('',#667,1.);
#101=VECTOR('',#668,1.);
#102=VECTOR('',#669,1.);
#103=VECTOR('',#670,1.);
#104=VECTOR('',#671,1.);
#105=VECTOR('',#672,1.);
#106=VECTOR('',#673,1.);
#107=VECTOR('',#674,1.);
#108=VECTOR('',#675,1.);
#109=VECTOR('',#676,1.);
#110=VECTOR('',#677,1.);
#111=VECTOR('',#678,1.);
#112=VECTOR('',#679,1.);
#113=VECTOR('',#680,1.);
#114=VECTOR('',#681,1.);
#115=VECTOR('',#682,1.);
#116=VECTOR('',#697,1.);
#117=VECTOR('',#698,1.);
#118=VECTOR('',#701,1.);
#119=VECTOR('',#704,1.);
#120=VECTOR('',#707,1.);
#121=VECTOR('',#710,1.);
#122=VECTOR('',#713,1.);
#123=VECTOR('',#716,1.);
#124=VECTOR('',#717,1.);
#125=VECTOR('',#720,1.);
#126=VECTOR('',#721,1.);
#127=VECTOR('',#724,1.);
#128=VECTOR('',#725,1.);
#129=VECTOR('',#728,1.);
#130=VECTOR('',#731,1.);
#131=VECTOR('',#734,1.);
#132=VECTOR('',#737,1.);
#133=VECTOR('',#740,1.);
#134=VECTOR('',#743,1.);
#135=VECTOR('',#746,1.);
#136=VECTOR('',#749,1.);
#137=VECTOR('',#752,1.);
#138=VECTOR('',#755,1.);
#139=ORIENTED_EDGE('',*,*,#295,.F.);
#140=ORIENTED_EDGE('',*,*,#296,.T.);
#141=ORIENTED_EDGE('',*,*,#297,.F.);
#142=ORIENTED_EDGE('',*,*,#298,.F.);
#143=ORIENTED_EDGE('',*,*,#299,.F.);
#144=ORIENTED_EDGE('',*,*,#300,.T.);
#145=ORIENTED_EDGE('',*,*,#301,.F.);
#146=ORIENTED_EDGE('',*,*,#302,.F.);
#147=ORIENTED_EDGE('',*,*,#303,.F.);
#148=ORIENTED_EDGE('',*,*,#304,.F.);
#149=ORIENTED_EDGE('',*,*,#305,.T.);
#150=ORIENTED_EDGE('',*,*,#306,.T.);
#151=ORIENTED_EDGE('',*,*,#307,.T.);
#152=ORIENTED_EDGE('',*,*,#308,.T.);
#153=ORIENTED_EDGE('',*,*,#309,.T.);
#154=ORIENTED_EDGE('',*,*,#310,.T.);
#155=ORIENTED_EDGE('',*,*,#311,.T.);
#156=ORIENTED_EDGE('',*,*,#312,.F.);
#157=ORIENTED_EDGE('',*,*,#313,.T.);
#158=ORIENTED_EDGE('',*,*,#314,.T.);
#159=ORIENTED_EDGE('',*,*,#315,.F.);
#160=ORIENTED_EDGE('',*,*,#316,.T.);
#161=ORIENTED_EDGE('',*,*,#317,.F.);
#162=ORIENTED_EDGE('',*,*,#318,.T.);
#163=ORIENTED_EDGE('',*,*,#319,.T.);
#164=ORIENTED_EDGE('',*,*,#320,.F.);
#165=ORIENTED_EDGE('',*,*,#321,.T.);
#166=ORIENTED_EDGE('',*,*,#322,.F.);
#167=ORIENTED_EDGE('',*,*,#323,.F.);
#168=ORIENTED_EDGE('',*,*,#324,.F.);
#169=ORIENTED_EDGE('',*,*,#325,.T.);
#170=ORIENTED_EDGE('',*,*,#326,.T.);
#171=ORIENTED_EDGE('',*,*,#327,.F.);
#172=ORIENTED_EDGE('',*,*,#328,.F.);
#173=ORIENTED_EDGE('',*,*,#329,.F.);
#174=ORIENTED_EDGE('',*,*,#330,.F.);
#175=ORIENTED_EDGE('',*,*,#331,.F.);
#176=ORIENTED_EDGE('',*,*,#330,.T.);
#177=ORIENTED_EDGE('',*,*,#332,.F.);
#178=ORIENTED_EDGE('',*,*,#331,.T.);
#179=ORIENTED_EDGE('',*,*,#332,.T.);
#180=ORIENTED_EDGE('',*,*,#308,.F.);
#181=ORIENTED_EDGE('',*,*,#333,.T.);
#182=ORIENTED_EDGE('',*,*,#334,.F.);
#183=ORIENTED_EDGE('',*,*,#335,.F.);
#184=ORIENTED_EDGE('',*,*,#311,.F.);
#185=ORIENTED_EDGE('',*,*,#336,.T.);
#186=ORIENTED_EDGE('',*,*,#304,.T.);
#187=ORIENTED_EDGE('',*,*,#337,.F.);
#188=ORIENTED_EDGE('',*,*,#333,.F.);
#189=ORIENTED_EDGE('',*,*,#310,.F.);
#190=ORIENTED_EDGE('',*,*,#329,.T.);
#191=ORIENTED_EDGE('',*,*,#338,.T.);
#192=ORIENTED_EDGE('',*,*,#305,.F.);
#193=ORIENTED_EDGE('',*,*,#336,.F.);
#194=ORIENTED_EDGE('',*,*,#328,.T.);
#195=ORIENTED_EDGE('',*,*,#339,.T.);
#196=ORIENTED_EDGE('',*,*,#340,.F.);
#197=ORIENTED_EDGE('',*,*,#306,.F.);
#198=ORIENTED_EDGE('',*,*,#338,.F.);
#199=ORIENTED_EDGE('',*,*,#327,.T.);
#200=ORIENTED_EDGE('',*,*,#341,.T.);
#201=ORIENTED_EDGE('',*,*,#342,.F.);
#202=ORIENTED_EDGE('',*,*,#339,.F.);
#203=ORIENTED_EDGE('',*,*,#343,.T.);
#204=ORIENTED_EDGE('',*,*,#344,.F.);
#205=ORIENTED_EDGE('',*,*,#341,.F.);
#206=ORIENTED_EDGE('',*,*,#326,.F.);
#207=ORIENTED_EDGE('',*,*,#345,.T.);
#208=ORIENTED_EDGE('',*,*,#346,.T.);
#209=ORIENTED_EDGE('',*,*,#347,.F.);
#210=ORIENTED_EDGE('',*,*,#343,.F.);
#211=ORIENTED_EDGE('',*,*,#325,.F.);
#212=ORIENTED_EDGE('',*,*,#324,.T.);
#213=ORIENTED_EDGE('',*,*,#348,.T.);
#214=ORIENTED_EDGE('',*,*,#349,.F.);
#215=ORIENTED_EDGE('',*,*,#345,.F.);
#216=ORIENTED_EDGE('',*,*,#323,.T.);
#217=ORIENTED_EDGE('',*,*,#350,.T.);
#218=ORIENTED_EDGE('',*,*,#351,.F.);
#219=ORIENTED_EDGE('',*,*,#352,.F.);
#220=ORIENTED_EDGE('',*,*,#348,.F.);
#221=ORIENTED_EDGE('',*,*,#322,.T.);
#222=ORIENTED_EDGE('',*,*,#353,.T.);
#223=ORIENTED_EDGE('',*,*,#354,.F.);
#224=ORIENTED_EDGE('',*,*,#350,.F.);
#225=ORIENTED_EDGE('',*,*,#355,.T.);
#226=ORIENTED_EDGE('',*,*,#356,.F.);
#227=ORIENTED_EDGE('',*,*,#353,.F.);
#228=ORIENTED_EDGE('',*,*,#321,.F.);
#229=ORIENTED_EDGE('',*,*,#320,.T.);
#230=ORIENTED_EDGE('',*,*,#357,.T.);
#231=ORIENTED_EDGE('',*,*,#296,.F.);
#232=ORIENTED_EDGE('',*,*,#358,.F.);
#233=ORIENTED_EDGE('',*,*,#355,.F.);
#234=ORIENTED_EDGE('',*,*,#359,.T.);
#235=ORIENTED_EDGE('',*,*,#297,.T.);
#236=ORIENTED_EDGE('',*,*,#357,.F.);
#237=ORIENTED_EDGE('',*,*,#319,.F.);
#238=ORIENTED_EDGE('',*,*,#360,.T.);
#239=ORIENTED_EDGE('',*,*,#361,.F.);
#240=ORIENTED_EDGE('',*,*,#298,.T.);
#241=ORIENTED_EDGE('',*,*,#359,.F.);
#242=ORIENTED_EDGE('',*,*,#318,.F.);
#243=ORIENTED_EDGE('',*,*,#317,.T.);
#244=ORIENTED_EDGE('',*,*,#362,.T.);
#245=ORIENTED_EDGE('',*,*,#363,.F.);
#246=ORIENTED_EDGE('',*,*,#360,.F.);
#247=ORIENTED_EDGE('',*,*,#364,.T.);
#248=ORIENTED_EDGE('',*,*,#365,.F.);
#249=ORIENTED_EDGE('',*,*,#362,.F.);
#250=ORIENTED_EDGE('',*,*,#316,.F.);
#251=ORIENTED_EDGE('',*,*,#315,.T.);
#252=ORIENTED_EDGE('',*,*,#366,.T.);
#253=ORIENTED_EDGE('',*,*,#300,.F.);
#254=ORIENTED_EDGE('',*,*,#367,.F.);
#255=ORIENTED_EDGE('',*,*,#364,.F.);
#256=ORIENTED_EDGE('',*,*,#368,.T.);
#257=ORIENTED_EDGE('',*,*,#301,.T.);
#258=ORIENTED_EDGE('',*,*,#366,.F.);
#259=ORIENTED_EDGE('',*,*,#314,.F.);
#260=ORIENTED_EDGE('',*,*,#369,.T.);
#261=ORIENTED_EDGE('',*,*,#370,.F.);
#262=ORIENTED_EDGE('',*,*,#302,.T.);
#263=ORIENTED_EDGE('',*,*,#368,.F.);
#264=ORIENTED_EDGE('',*,*,#313,.F.);
#265=ORIENTED_EDGE('',*,*,#312,.T.);
#266=ORIENTED_EDGE('',*,*,#335,.T.);
#267=ORIENTED_EDGE('',*,*,#371,.F.);
#268=ORIENTED_EDGE('',*,*,#369,.F.);
#269=ORIENTED_EDGE('',*,*,#372,.F.);
#270=ORIENTED_EDGE('',*,*,#346,.F.);
#271=ORIENTED_EDGE('',*,*,#349,.T.);
#272=ORIENTED_EDGE('',*,*,#352,.T.);
#273=ORIENTED_EDGE('',*,*,#372,.T.);
#274=ORIENTED_EDGE('',*,*,#351,.T.);
#275=ORIENTED_EDGE('',*,*,#354,.T.);
#276=ORIENTED_EDGE('',*,*,#356,.T.);
#277=ORIENTED_EDGE('',*,*,#358,.T.);
#278=ORIENTED_EDGE('',*,*,#295,.T.);
#279=ORIENTED_EDGE('',*,*,#361,.T.);
#280=ORIENTED_EDGE('',*,*,#363,.T.);
#281=ORIENTED_EDGE('',*,*,#365,.T.);
#282=ORIENTED_EDGE('',*,*,#367,.T.);
#283=ORIENTED_EDGE('',*,*,#299,.T.);
#284=ORIENTED_EDGE('',*,*,#370,.T.);
#285=ORIENTED_EDGE('',*,*,#371,.T.);
#286=ORIENTED_EDGE('',*,*,#334,.T.);
#287=ORIENTED_EDGE('',*,*,#337,.T.);
#288=ORIENTED_EDGE('',*,*,#303,.T.);
#289=ORIENTED_EDGE('',*,*,#340,.T.);
#290=ORIENTED_EDGE('',*,*,#342,.T.);
#291=ORIENTED_EDGE('',*,*,#344,.T.);
#292=ORIENTED_EDGE('',*,*,#347,.T.);
#293=ORIENTED_EDGE('',*,*,#307,.F.);
#294=ORIENTED_EDGE('',*,*,#309,.F.);
#295=EDGE_CURVE('',#373,#374,#428,.T.);
#296=EDGE_CURVE('',#373,#375,#35,.T.);
#297=EDGE_CURVE('',#376,#375,#36,.F.);
#298=EDGE_CURVE('',#374,#376,#37,.F.);
#299=EDGE_CURVE('',#377,#378,#429,.T.);
#300=EDGE_CURVE('',#377,#379,#38,.T.);
#301=EDGE_CURVE('',#380,#379,#39,.F.);
#302=EDGE_CURVE('',#378,#380,#40,.F.);
#303=EDGE_CURVE('',#381,#382,#430,.T.);
#304=EDGE_CURVE('',#383,#381,#41,.F.);
#305=EDGE_CURVE('',#383,#384,#42,.T.);
#306=EDGE_CURVE('',#384,#382,#43,.T.);
#307=EDGE_CURVE('',#385,#385,#431,.T.);
#308=EDGE_CURVE('',#386,#386,#432,.T.);
#309=EDGE_CURVE('',#387,#387,#433,.F.);
#310=EDGE_CURVE('',#388,#389,#44,.F.);
#311=EDGE_CURVE('',#389,#390,#45,.F.);
#312=EDGE_CURVE('',#391,#390,#46,.T.);
#313=EDGE_CURVE('',#391,#392,#47,.F.);
#314=EDGE_CURVE('',#392,#393,#48,.F.);
#315=EDGE_CURVE('',#394,#393,#49,.T.);
#316=EDGE_CURVE('',#394,#395,#50,.F.);
#317=EDGE_CURVE('',#396,#395,#51,.T.);
#318=EDGE_CURVE('',#396,#397,#52,.F.);
#319=EDGE_CURVE('',#397,#398,#53,.F.);
#320=EDGE_CURVE('',#399,#398,#54,.T.);
#321=EDGE_CURVE('',#399,#400,#55,.F.);
#322=EDGE_CURVE('',#401,#400,#56,.T.);
#323=EDGE_CURVE('',#402,#401,#57,.T.);
#324=EDGE_CURVE('',#403,#402,#58,.T.);
#325=EDGE_CURVE('',#403,#404,#59,.F.);
#326=EDGE_CURVE('',#404,#405,#60,.F.);
#327=EDGE_CURVE('',#406,#405,#61,.T.);
#328=EDGE_CURVE('',#407,#406,#62,.T.);
#329=EDGE_CURVE('',#388,#407,#63,.T.);
#330=EDGE_CURVE('',#408,#408,#434,.T.);
#331=EDGE_CURVE('',#409,#409,#435,.T.);
#332=EDGE_CURVE('',#410,#410,#436,.T.);
#333=EDGE_CURVE('',#389,#411,#64,.T.);
#334=EDGE_CURVE('',#412,#411,#13,.F.);
#335=EDGE_CURVE('',#390,#412,#65,.F.);
#336=EDGE_CURVE('',#388,#383,#66,.F.);
#337=EDGE_CURVE('',#411,#381,#14,.F.);
#338=EDGE_CURVE('',#407,#384,#67,.T.);
#339=EDGE_CURVE('',#406,#413,#68,.T.);
#340=EDGE_CURVE('',#382,#413,#15,.T.);
#341=EDGE_CURVE('',#405,#414,#69,.F.);
#342=EDGE_CURVE('',#413,#414,#16,.T.);
#343=EDGE_CURVE('',#404,#415,#70,.T.);
#344=EDGE_CURVE('',#414,#415,#17,.F.);
#345=EDGE_CURVE('',#403,#416,#71,.F.);
#346=EDGE_CURVE('',#416,#417,#72,.F.);
#347=EDGE_CURVE('',#415,#417,#18,.F.);
#348=EDGE_CURVE('',#402,#418,#73,.T.);
#349=EDGE_CURVE('',#416,#418,#74,.T.);
#350=EDGE_CURVE('',#401,#419,#75,.T.);
#351=EDGE_CURVE('',#420,#419,#19,.T.);
#352=EDGE_CURVE('',#418,#420,#76,.T.);
#353=EDGE_CURVE('',#400,#421,#77,.F.);
#354=EDGE_CURVE('',#419,#421,#20,.T.);
#355=EDGE_CURVE('',#399,#422,#78,.F.);
#356=EDGE_CURVE('',#421,#422,#21,.F.);
#357=EDGE_CURVE('',#398,#375,#79,.F.);
#358=EDGE_CURVE('',#422,#373,#22,.F.);
#359=EDGE_CURVE('',#397,#376,#80,.T.);
#360=EDGE_CURVE('',#396,#423,#81,.F.);
#361=EDGE_CURVE('',#374,#423,#23,.T.);
#362=EDGE_CURVE('',#395,#424,#82,.F.);
#363=EDGE_CURVE('',#423,#424,#24,.T.);
#364=EDGE_CURVE('',#394,#425,#83,.F.);
#365=EDGE_CURVE('',#424,#425,#25,.F.);
#366=EDGE_CURVE('',#393,#379,#84,.F.);
#367=EDGE_CURVE('',#425,#377,#26,.F.);
#368=EDGE_CURVE('',#392,#380,#85,.T.);
#369=EDGE_CURVE('',#391,#426,#86,.F.);
#370=EDGE_CURVE('',#378,#426,#27,.T.);
#371=EDGE_CURVE('',#426,#412,#28,.T.);
#372=EDGE_CURVE('',#417,#420,#437,.T.);
#373=VERTEX_POINT('',#769);
#374=VERTEX_POINT('',#770);
#375=VERTEX_POINT('',#772);
#376=VERTEX_POINT('',#774);
#377=VERTEX_POINT('',#778);
#378=VERTEX_POINT('',#779);
#379=VERTEX_POINT('',#781);
#380=VERTEX_POINT('',#783);
#381=VERTEX_POINT('',#787);
#382=VERTEX_POINT('',#788);
#383=VERTEX_POINT('',#790);
#384=VERTEX_POINT('',#792);
#385=VERTEX_POINT('',#796);
#386=VERTEX_POINT('',#798);
#387=VERTEX_POINT('',#801);
#388=VERTEX_POINT('',#804);
#389=VERTEX_POINT('',#805);
#390=VERTEX_POINT('',#807);
#391=VERTEX_POINT('',#809);
#392=VERTEX_POINT('',#811);
#393=VERTEX_POINT('',#813);
#394=VERTEX_POINT('',#815);
#395=VERTEX_POINT('',#817);
#396=VERTEX_POINT('',#819);
#397=VERTEX_POINT('',#821);
#398=VERTEX_POINT('',#823);
#399=VERTEX_POINT('',#825);
#400=VERTEX_POINT('',#827);
#401=VERTEX_POINT('',#829);
#402=VERTEX_POINT('',#831);
#403=VERTEX_POINT('',#833);
#404=VERTEX_POINT('',#835);
#405=VERTEX_POINT('',#837);
#406=VERTEX_POINT('',#839);
#407=VERTEX_POINT('',#841);
#408=VERTEX_POINT('',#844);
#409=VERTEX_POINT('',#847);
#410=VERTEX_POINT('',#850);
#411=VERTEX_POINT('',#854);
#412=VERTEX_POINT('',#859);
#413=VERTEX_POINT('',#871);
#414=VERTEX_POINT('',#878);
#415=VERTEX_POINT('',#885);
#416=VERTEX_POINT('',#892);
#417=VERTEX_POINT('',#894);
#418=VERTEX_POINT('',#901);
#419=VERTEX_POINT('',#905);
#420=VERTEX_POINT('',#910);
#421=VERTEX_POINT('',#914);
#422=VERTEX_POINT('',#921);
#423=VERTEX_POINT('',#936);
#424=VERTEX_POINT('',#943);
#425=VERTEX_POINT('',#950);
#426=VERTEX_POINT('',#965);
#427=VERTEX_POINT('',#978);
#428=CIRCLE('',#587,0.001145);
#429=CIRCLE('',#589,0.001145);
#430=CIRCLE('',#591,0.001145);
#431=CIRCLE('',#593,0.002);
#432=CIRCLE('',#594,0.002);
#433=CIRCLE('',#596,0.00162111388749999);
#434=CIRCLE('',#598,0.0042);
#435=CIRCLE('',#600,0.0042);
#436=CIRCLE('',#602,0.00229289321881345);
#437=CIRCLE('',#625,0.001145);
#438=EDGE_LOOP('',(#139,#140,#141,#142));
#439=EDGE_LOOP('',(#143,#144,#145,#146));
#440=EDGE_LOOP('',(#147,#148,#149,#150));
#441=EDGE_LOOP('',(#151));
#442=EDGE_LOOP('',(#152));
#443=EDGE_LOOP('',(#153));
#444=EDGE_LOOP('',(#154,#155,#156,#157,#158,#159,#160,#161,#162,#163,#164,
#165,#166,#167,#168,#169,#170,#171,#172,#173));
#445=EDGE_LOOP('',(#174));
#446=EDGE_LOOP('',(#175));
#447=EDGE_LOOP('',(#176));
#448=EDGE_LOOP('',(#177));
#449=EDGE_LOOP('',(#178));
#450=EDGE_LOOP('',(#179));
#451=EDGE_LOOP('',(#180));
#452=EDGE_LOOP('',(#181,#182,#183,#184));
#453=EDGE_LOOP('',(#185,#186,#187,#188,#189));
#454=EDGE_LOOP('',(#190,#191,#192,#193));
#455=EDGE_LOOP('',(#194,#195,#196,#197,#198));
#456=EDGE_LOOP('',(#199,#200,#201,#202));
#457=EDGE_LOOP('',(#203,#204,#205,#206));
#458=EDGE_LOOP('',(#207,#208,#209,#210,#211));
#459=EDGE_LOOP('',(#212,#213,#214,#215));
#460=EDGE_LOOP('',(#216,#217,#218,#219,#220));
#461=EDGE_LOOP('',(#221,#222,#223,#224));
#462=EDGE_LOOP('',(#225,#226,#227,#228));
#463=EDGE_LOOP('',(#229,#230,#231,#232,#233));
#464=EDGE_LOOP('',(#234,#235,#236,#237));
#465=EDGE_LOOP('',(#238,#239,#240,#241,#242));
#466=EDGE_LOOP('',(#243,#244,#245,#246));
#467=EDGE_LOOP('',(#247,#248,#249,#250));
#468=EDGE_LOOP('',(#251,#252,#253,#254,#255));
#469=EDGE_LOOP('',(#256,#257,#258,#259));
#470=EDGE_LOOP('',(#260,#261,#262,#263,#264));
#471=EDGE_LOOP('',(#265,#266,#267,#268));
#472=EDGE_LOOP('',(#269,#270,#271,#272));
#473=EDGE_LOOP('',(#273,#274,#275,#276,#277,#278,#279,#280,#281,#282,#283,
#284,#285,#286,#287,#288,#289,#290,#291,#292));
#474=EDGE_LOOP('',(#293));
#475=EDGE_LOOP('',(#294));
#476=FACE_BOUND('',#438,.T.);
#477=FACE_BOUND('',#439,.T.);
#478=FACE_BOUND('',#440,.T.);
#479=FACE_BOUND('',#441,.T.);
#480=FACE_BOUND('',#442,.T.);
#481=FACE_BOUND('',#443,.T.);
#482=FACE_BOUND('',#444,.T.);
#483=FACE_BOUND('',#445,.T.);
#484=FACE_BOUND('',#446,.T.);
#485=FACE_BOUND('',#447,.T.);
#486=FACE_BOUND('',#448,.T.);
#487=FACE_BOUND('',#449,.T.);
#488=FACE_BOUND('',#450,.T.);
#489=FACE_BOUND('',#451,.T.);
#490=FACE_BOUND('',#452,.T.);
#491=FACE_BOUND('',#453,.T.);
#492=FACE_BOUND('',#454,.T.);
#493=FACE_BOUND('',#455,.T.);
#494=FACE_BOUND('',#456,.T.);
#495=FACE_BOUND('',#457,.T.);
#496=FACE_BOUND('',#458,.T.);
#497=FACE_BOUND('',#459,.T.);
#498=FACE_BOUND('',#460,.T.);
#499=FACE_BOUND('',#461,.T.);
#500=FACE_BOUND('',#462,.T.);
#501=FACE_BOUND('',#463,.T.);
#502=FACE_BOUND('',#464,.T.);
#503=FACE_BOUND('',#465,.T.);
#504=FACE_BOUND('',#466,.T.);
#505=FACE_BOUND('',#467,.T.);
#506=FACE_BOUND('',#468,.T.);
#507=FACE_BOUND('',#469,.T.);
#508=FACE_BOUND('',#470,.T.);
#509=FACE_BOUND('',#471,.T.);
#510=FACE_BOUND('',#472,.T.);
#511=FACE_BOUND('',#12,.T.);
#512=FACE_BOUND('',#473,.T.);
#513=FACE_BOUND('',#474,.T.);
#514=FACE_BOUND('',#475,.T.);
#515=PLANE('',#586);
#516=PLANE('',#588);
#517=PLANE('',#590);
#518=PLANE('',#595);
#519=PLANE('',#597);
#520=PLANE('',#604);
#521=PLANE('',#605);
#522=PLANE('',#606);
#523=PLANE('',#607);
#524=PLANE('',#608);
#525=PLANE('',#609);
#526=PLANE('',#610);
#527=PLANE('',#611);
#528=PLANE('',#612);
#529=PLANE('',#613);
#530=PLANE('',#614);
#531=PLANE('',#615);
#532=PLANE('',#616);
#533=PLANE('',#617);
#534=PLANE('',#618);
#535=PLANE('',#619);
#536=PLANE('',#620);
#537=PLANE('',#621);
#538=PLANE('',#622);
#539=PLANE('',#623);
#540=PLANE('',#624);
#541=ADVANCED_FACE('',(#476),#515,.T.);
#542=ADVANCED_FACE('',(#477),#516,.T.);
#543=ADVANCED_FACE('',(#478),#517,.T.);
#544=ADVANCED_FACE('',(#479,#480),#33,.T.);
#545=ADVANCED_FACE('',(#481),#518,.F.);
#546=ADVANCED_FACE('',(#482,#483),#519,.F.);
#547=ADVANCED_FACE('',(#484,#485),#34,.T.);
#548=ADVANCED_FACE('',(#486,#487),#30,.T.);
#549=ADVANCED_FACE('',(#488,#489),#29,.F.);
#550=ADVANCED_FACE('',(#490),#520,.T.);
#551=ADVANCED_FACE('',(#491),#521,.T.);
#552=ADVANCED_FACE('',(#492),#522,.T.);
#553=ADVANCED_FACE('',(#493),#523,.T.);
#554=ADVANCED_FACE('',(#494),#524,.T.);
#555=ADVANCED_FACE('',(#495),#525,.T.);
#556=ADVANCED_FACE('',(#496),#526,.T.);
#557=ADVANCED_FACE('',(#497),#527,.T.);
#558=ADVANCED_FACE('',(#498),#528,.T.);
#559=ADVANCED_FACE('',(#499),#529,.T.);
#560=ADVANCED_FACE('',(#500),#530,.T.);
#561=ADVANCED_FACE('',(#501),#531,.T.);
#562=ADVANCED_FACE('',(#502),#532,.T.);
#563=ADVANCED_FACE('',(#503),#533,.T.);
#564=ADVANCED_FACE('',(#504),#534,.T.);
#565=ADVANCED_FACE('',(#505),#535,.T.);
#566=ADVANCED_FACE('',(#506),#536,.T.);
#567=ADVANCED_FACE('',(#507),#537,.T.);
#568=ADVANCED_FACE('',(#508),#538,.T.);
#569=ADVANCED_FACE('',(#509),#539,.T.);
#570=ADVANCED_FACE('',(#510),#540,.T.);
#571=ADVANCED_FACE('',(#511,#512),#31,.F.);
#572=ADVANCED_FACE('',(#513,#514),#32,.T.);
#573=CLOSED_SHELL('',(#541,#542,#543,#544,#545,#546,#547,#548,#549,#550,
#551,#552,#553,#554,#555,#556,#557,#558,#559,#560,#561,#562,#563,#564,#565,
#566,#567,#568,#569,#570,#571,#572));
#574=STYLED_ITEM('',(#575),#582);
#575=PRESENTATION_STYLE_ASSIGNMENT((#576));
#576=SURFACE_STYLE_USAGE(.BOTH.,#577);
#577=SURFACE_SIDE_STYLE('',(#578));
#578=SURFACE_STYLE_FILL_AREA(#579);
#579=FILL_AREA_STYLE('',(#580));
#580=FILL_AREA_STYLE_COLOUR('',#581);
#581=COLOUR_RGB('',0.603921568627451,0.647058823529412,0.686274509803922);
#582=MANIFOLD_SOLID_BREP('PH Countersunk flat head screw M4x0.7 x 14',#573);
#583=SHAPE_DEFINITION_REPRESENTATION(#986,#584);
#584=SHAPE_REPRESENTATION('PH Countersunk flat head screw M4x0.7 x 14',
(#585),#981);
#585=AXIS2_PLACEMENT_3D('',#766,#628,#629);
#586=AXIS2_PLACEMENT_3D('',#767,#630,#631);
#587=AXIS2_PLACEMENT_3D('',#768,#632,#633);
#588=AXIS2_PLACEMENT_3D('',#776,#637,#638);
#589=AXIS2_PLACEMENT_3D('',#777,#639,#640);
#590=AXIS2_PLACEMENT_3D('',#785,#644,#645);
#591=AXIS2_PLACEMENT_3D('',#786,#646,#647);
#592=AXIS2_PLACEMENT_3D('',#794,#651,#652);
#593=AXIS2_PLACEMENT_3D('',#795,#653,#654);
#594=AXIS2_PLACEMENT_3D('',#797,#655,#656);
#595=AXIS2_PLACEMENT_3D('',#799,#657,#658);
#596=AXIS2_PLACEMENT_3D('',#800,#659,#660);
#597=AXIS2_PLACEMENT_3D('',#802,#661,#662);
#598=AXIS2_PLACEMENT_3D('',#843,#683,#684);
#599=AXIS2_PLACEMENT_3D('',#845,#685,#686);
#600=AXIS2_PLACEMENT_3D('',#846,#687,#688);
#601=AXIS2_PLACEMENT_3D('',#848,#689,#690);
#602=AXIS2_PLACEMENT_3D('',#849,#691,#692);
#603=AXIS2_PLACEMENT_3D('',#851,#693,#694);
#604=AXIS2_PLACEMENT_3D('',#852,#695,#696);
#605=AXIS2_PLACEMENT_3D('',#861,#699,#700);
#606=AXIS2_PLACEMENT_3D('',#867,#702,#703);
#607=AXIS2_PLACEMENT_3D('',#869,#705,#706);
#608=AXIS2_PLACEMENT_3D('',#876,#708,#709);
#609=AXIS2_PLACEMENT_3D('',#883,#711,#712);
#610=AXIS2_PLACEMENT_3D('',#890,#714,#715);
#611=AXIS2_PLACEMENT_3D('',#899,#718,#719);
#612=AXIS2_PLACEMENT_3D('',#903,#722,#723);
#613=AXIS2_PLACEMENT_3D('',#912,#726,#727);
#614=AXIS2_PLACEMENT_3D('',#919,#729,#730);
#615=AXIS2_PLACEMENT_3D('',#926,#732,#733);
#616=AXIS2_PLACEMENT_3D('',#932,#735,#736);
#617=AXIS2_PLACEMENT_3D('',#934,#738,#739);
#618=AXIS2_PLACEMENT_3D('',#941,#741,#742);
#619=AXIS2_PLACEMENT_3D('',#948,#744,#745);
#620=AXIS2_PLACEMENT_3D('',#955,#747,#748);
#621=AXIS2_PLACEMENT_3D('',#961,#750,#751);
#622=AXIS2_PLACEMENT_3D('',#963,#753,#754);
#623=AXIS2_PLACEMENT_3D('',#970,#756,#757);
#624=AXIS2_PLACEMENT_3D('',#975,#758,#759);
#625=AXIS2_PLACEMENT_3D('',#976,#760,#761);
#626=AXIS2_PLACEMENT_3D('',#977,#762,#763);
#627=AXIS2_PLACEMENT_3D('',#979,#764,#765);
#628=DIRECTION('',(0.,0.,1.));
#629=DIRECTION('',(1.,0.,0.));
#630=DIRECTION('',(0.,0.,1.));
#631=DIRECTION('',(1.,0.,0.));
#632=DIRECTION('',(-2.4492935982947E-16,0.,1.));
#633=DIRECTION('',(1.,0.,2.4492935982947E-16));
#634=DIRECTION('',(1.80812937273341E-16,1.,0.));
#635=DIRECTION('',(-1.,0.,0.));
#636=DIRECTION('',(-1.80812937273342E-16,-1.,0.));
#637=DIRECTION('',(0.,0.,1.));
#638=DIRECTION('',(1.,0.,0.));
#639=DIRECTION('',(-2.4492935982947E-16,0.,1.));
#640=DIRECTION('',(1.,0.,2.4492935982947E-16));
#641=DIRECTION('',(-1.,0.,0.));
#642=DIRECTION('',(0.,-1.,0.));
#643=DIRECTION('',(1.,0.,0.));
#644=DIRECTION('',(0.,0.,1.));
#645=DIRECTION('',(1.,0.,0.));
#646=DIRECTION('',(-2.4492935982947E-16,0.,1.));
#647=DIRECTION('',(1.,0.,2.4492935982947E-16));
#648=DIRECTION('',(-1.80812937273341E-16,-1.,0.));
#649=DIRECTION('',(1.,0.,0.));
#650=DIRECTION('',(1.80812937273341E-16,1.,0.));
#651=DIRECTION('',(0.,0.,-1.));
#652=DIRECTION('',(-1.,0.,0.));
#653=DIRECTION('',(0.,0.,1.));
#654=DIRECTION('',(1.,0.,0.));
#655=DIRECTION('',(0.,0.,-1.));
#656=DIRECTION('',(-1.,0.,0.));
#657=DIRECTION('',(0.,0.,1.));
#658=DIRECTION('',(1.,0.,0.));
#659=DIRECTION('',(0.,0.,1.));
#660=DIRECTION('',(1.,0.,0.));
#661=DIRECTION('',(0.,0.,-1.));
#662=DIRECTION('',(-1.,0.,0.));
#663=DIRECTION('',(-1.80812937273341E-16,-1.,0.));
#664=DIRECTION('',(0.319377210902914,-0.947627667998289,0.));
#665=DIRECTION('',(0.947627667998289,-0.319377210902914,0.));
#666=DIRECTION('',(1.,0.,0.));
#667=DIRECTION('',(0.,-1.,0.));
#668=DIRECTION('',(-1.,0.,0.));
#669=DIRECTION('',(-0.947627667998289,-0.319377210902914,0.));
#670=DIRECTION('',(-0.319377210902914,-0.947627667998289,0.));
#671=DIRECTION('',(-1.80812937273342E-16,-1.,0.));
#672=DIRECTION('',(-1.,0.,0.));
#673=DIRECTION('',(1.80812937273341E-16,1.,0.));
#674=DIRECTION('',(-0.319377210902914,0.947627667998289,0.));
#675=DIRECTION('',(-0.947627667998289,0.319377210902914,0.));
#676=DIRECTION('',(-1.,0.,0.));
#677=DIRECTION('',(0.,1.,0.));
#678=DIRECTION('',(1.,0.,0.));
#679=DIRECTION('',(0.947627667998289,0.319377210902914,0.));
#680=DIRECTION('',(0.319377210902914,0.947627667998289,0.));
#681=DIRECTION('',(1.80812937273341E-16,1.,0.));
#682=DIRECTION('',(1.,0.,0.));
#683=DIRECTION('',(0.,0.,-1.));
#684=DIRECTION('',(-1.,0.,0.));
#685=DIRECTION('',(0.,0.,-1.));
#686=DIRECTION('',(-1.,0.,0.));
#687=DIRECTION('',(0.,0.,-1.));
#688=DIRECTION('',(-1.,0.,0.));
#689=DIRECTION('',(0.,0.,1.));
#690=DIRECTION('',(1.,0.,0.));
#691=DIRECTION('',(0.,0.,-1.));
#692=DIRECTION('',(-1.,0.,0.));
#693=DIRECTION('',(0.,0.,-1.));
#694=DIRECTION('',(-1.,0.,0.));
#695=DIRECTION('',(0.943201339759699,0.317885413633668,0.0965406467476809));
#696=DIRECTION('',(-0.319377210902914,0.947627667998289,0.));
#697=DIRECTION('',(0.0965285514943197,0.0158290108809346,-0.995204341409813));
#698=DIRECTION('',(-0.0761088013223377,-0.0761088013223377,0.994190575655671));
#699=DIRECTION('',(0.995329042842386,-1.79968367789795E-16,0.0965406467476809));
#700=DIRECTION('',(0.0965406467476809,0.,-0.995329042842386));
#701=DIRECTION('',(-0.0866266642028952,-0.441405617497977,0.89311639884749));
#702=DIRECTION('',(0.,0.896486430383441,0.44307119082418));
#703=DIRECTION('',(0.,-0.44307119082418,0.896486430383441));
#704=DIRECTION('',(-0.086626664202895,0.441405617497977,-0.89311639884749));
#705=DIRECTION('',(-0.995329042842386,1.79968367789795E-16,0.0965406467476809));
#706=DIRECTION('',(0.0965406467476809,0.,0.995329042842386));
#707=DIRECTION('',(-0.0965285514943197,0.0158290108809346,-0.995204341409813));
#708=DIRECTION('',(-0.943201339759699,0.317885413633668,0.0965406467476809));
#709=DIRECTION('',(-0.319377210902914,-0.947627667998289,0.));
#710=DIRECTION('',(0.0761088013223377,-0.0761088013223377,0.994190575655671));
#711=DIRECTION('',(-0.317885413633668,0.943201339759699,0.0965406467476809));
#712=DIRECTION('',(-0.947627667998289,-0.319377210902914,0.));
#713=DIRECTION('',(-0.0158290108809346,0.0965285514943197,-0.995204341409813));
#714=DIRECTION('',(0.,0.995329042842386,0.0965406467476809));
#715=DIRECTION('',(0.,-0.0965406467476809,0.995329042842386));
#716=DIRECTION('',(0.441405617497977,-0.0866266642028951,0.89311639884749));
#717=DIRECTION('',(1.,0.,0.));
#718=DIRECTION('',(-0.896486430383441,0.,0.44307119082418));
#719=DIRECTION('',(0.44307119082418,0.,0.896486430383441));
#720=DIRECTION('',(-0.441405617497977,-0.0866266642028951,-0.89311639884749));
#721=DIRECTION('',(0.,1.,0.));
#722=DIRECTION('',(0.,-0.995329042842386,0.0965406467476809));
#723=DIRECTION('',(0.,-0.0965406467476809,-0.995329042842386));
#724=DIRECTION('',(-0.0158290108809346,-0.0965285514943197,-0.995204341409813));
#725=DIRECTION('',(-1.,0.,0.));
#726=DIRECTION('',(-0.317885413633668,-0.943201339759699,0.0965406467476809));
#727=DIRECTION('',(0.947627667998289,-0.319377210902914,0.));
#728=DIRECTION('',(0.0761088013223377,0.0761088013223377,0.994190575655671));
#729=DIRECTION('',(-0.943201339759699,-0.317885413633668,0.0965406467476809));
#730=DIRECTION('',(0.319377210902914,-0.947627667998289,0.));
#731=DIRECTION('',(0.0965285514943197,0.0158290108809346,0.995204341409813));
#732=DIRECTION('',(-0.995329042842386,1.79968367789795E-16,0.0965406467476809));
#733=DIRECTION('',(0.0965406467476809,0.,0.995329042842386));
#734=DIRECTION('',(0.0866266642028952,0.441405617497977,0.89311639884749));
#735=DIRECTION('',(0.,-0.896486430383441,0.44307119082418));
#736=DIRECTION('',(0.,-0.44307119082418,-0.896486430383441));
#737=DIRECTION('',(0.086626664202895,-0.441405617497977,-0.89311639884749));
#738=DIRECTION('',(0.995329042842386,-1.79968367789796E-16,0.0965406467476809));
#739=DIRECTION('',(0.0965406467476809,0.,-0.995329042842386));
#740=DIRECTION('',(-0.0965285514943197,0.0158290108809346,0.995204341409813));
#741=DIRECTION('',(0.943201339759699,-0.317885413633668,0.0965406467476809));
#742=DIRECTION('',(0.319377210902914,0.947627667998289,0.));
#743=DIRECTION('',(-0.0761088013223377,0.0761088013223376,0.994190575655671));
#744=DIRECTION('',(0.317885413633668,-0.943201339759699,0.0965406467476809));
#745=DIRECTION('',(0.947627667998289,0.319377210902914,0.));
#746=DIRECTION('',(-0.0158290108809346,0.0965285514943197,0.995204341409813));
#747=DIRECTION('',(0.,-0.995329042842386,0.0965406467476809));
#748=DIRECTION('',(0.,-0.0965406467476809,-0.995329042842386));
#749=DIRECTION('',(-0.441405617497977,0.0866266642028951,0.89311639884749));
#750=DIRECTION('',(0.896486430383441,0.,0.44307119082418));
#751=DIRECTION('',(0.44307119082418,0.,-0.896486430383441));
#752=DIRECTION('',(0.441405617497977,0.0866266642028951,-0.89311639884749));
#753=DIRECTION('',(0.,0.995329042842386,0.0965406467476809));
#754=DIRECTION('',(0.,-0.0965406467476809,0.995329042842386));
#755=DIRECTION('',(-0.0158290108809346,-0.0965285514943197,0.995204341409813));
#756=DIRECTION('',(0.317885413633668,0.943201339759699,0.0965406467476809));
#757=DIRECTION('',(-0.947627667998289,0.319377210902914,0.));
#758=DIRECTION('',(0.,0.,1.));
#759=DIRECTION('',(1.,0.,0.));
#760=DIRECTION('',(-2.4492935982947E-16,0.,1.));
#761=DIRECTION('',(1.,0.,2.4492935982947E-16));
#762=DIRECTION('',(-2.4492935982947E-16,0.,1.));
#763=DIRECTION('',(1.,0.,2.4492935982947E-16));
#764=DIRECTION('',(0.,0.,1.));
#765=DIRECTION('',(1.,0.,0.));
#766=CARTESIAN_POINT('',(0.,0.,0.));
#767=CARTESIAN_POINT('',(0.,0.,-0.00149));
#768=CARTESIAN_POINT('',(2.77006986981629E-19,0.,-0.00149));
#769=CARTESIAN_POINT('',(0.00037,0.00108357048686276,-0.00149));
#770=CARTESIAN_POINT('',(-0.00037,0.00108357048686276,-0.00149));
#771=CARTESIAN_POINT('',(0.00037,-6.69007867911362E-20,-0.00149));
#772=CARTESIAN_POINT('',(0.00037,0.00156359613268696,-0.00149));
#773=CARTESIAN_POINT('',(0.,0.00156359613268696,-0.00149));
#774=CARTESIAN_POINT('',(-0.00037,0.00156359613268696,-0.00149));
#775=CARTESIAN_POINT('',(-0.00037,6.69007867911366E-20,-0.00149));
#776=CARTESIAN_POINT('',(0.,0.,-0.00149));
#777=CARTESIAN_POINT('',(2.77006986981629E-19,0.,-0.00149));
#778=CARTESIAN_POINT('',(-0.00108357048686276,0.00037,-0.00149));
#779=CARTESIAN_POINT('',(-0.00108357048686276,-0.00037,-0.00149));
#780=CARTESIAN_POINT('',(0.,0.00037,-0.00149));
#781=CARTESIAN_POINT('',(-0.00156359613268696,0.00037,-0.00149));
#782=CARTESIAN_POINT('',(-0.00156359613268696,0.,-0.00149));
#783=CARTESIAN_POINT('',(-0.00156359613268696,-0.00037,-0.00149));
#784=CARTESIAN_POINT('',(0.,-0.00037,-0.00149));
#785=CARTESIAN_POINT('',(0.,0.,-0.00149));
#786=CARTESIAN_POINT('',(2.77006986981629E-19,0.,-0.00149));
#787=CARTESIAN_POINT('',(-0.00037,-0.00108357048686276,-0.00149));
#788=CARTESIAN_POINT('',(0.00037,-0.00108357048686276,-0.00149));
#789=CARTESIAN_POINT('',(-0.00037,6.69007867911363E-20,-0.00149));
#790=CARTESIAN_POINT('',(-0.00037,-0.00156359613268696,-0.00149));
#791=CARTESIAN_POINT('',(0.,-0.00156359613268696,-0.00149));
#792=CARTESIAN_POINT('',(0.00037,-0.00156359613268696,-0.00149));
#793=CARTESIAN_POINT('',(0.00037,-6.69007867911364E-20,-0.00149));
#794=CARTESIAN_POINT('',(0.,0.,-0.007));
#795=CARTESIAN_POINT('',(0.,0.,-0.0136211138875));
#796=CARTESIAN_POINT('',(0.002,0.,-0.0136211138875));
#797=CARTESIAN_POINT('',(0.,0.,-0.0031142135623731));
#798=CARTESIAN_POINT('',(-0.002,0.,-0.0031142135623731));
#799=CARTESIAN_POINT('',(-0.001,0.,-0.014));
#800=CARTESIAN_POINT('',(0.,0.,-0.014));
#801=CARTESIAN_POINT('',(0.00162111388749999,0.,-0.014));
#802=CARTESIAN_POINT('',(-0.0021,0.,-1.62630325872826E-19));
#803=CARTESIAN_POINT('',(-0.000514520613246913,-2.86675184905162E-19,-1.62630325872826E-19));
#804=CARTESIAN_POINT('',(-0.000514520613246913,-0.0023,-1.62630325872826E-19));
#805=CARTESIAN_POINT('',(-0.000514520613246913,-0.000987668574136864,-1.62630325872826E-19));
#806=CARTESIAN_POINT('',(-0.000975160936205323,0.000379102441856982,-1.62630325872826E-19));
#807=CARTESIAN_POINT('',(-0.000633788248762638,-0.000633788248762638,-1.62630325872826E-19));
#808=CARTESIAN_POINT('',(-0.00214226020348778,-0.000125390718915237,-1.62630325872826E-19));
#809=CARTESIAN_POINT('',(-0.000987668574136865,-0.000514520613246913,-1.62630325872826E-19));
#810=CARTESIAN_POINT('',(-0.0021,-0.000514520613246913,-1.62630325872826E-19));
#811=CARTESIAN_POINT('',(-0.0023,-0.000514520613246913,-1.62630325872826E-19));
#812=CARTESIAN_POINT('',(-0.0023,0.,-1.62630325872826E-19));
#813=CARTESIAN_POINT('',(-0.0023,0.000514520613246913,-1.62630325872826E-19));
#814=CARTESIAN_POINT('',(-0.0021,0.000514520613246913,-1.62630325872826E-19));
#815=CARTESIAN_POINT('',(-0.000987668574136864,0.000514520613246913,-1.62630325872826E-19));
#816=CARTESIAN_POINT('',(-0.00214226020348778,0.000125390718915237,-1.62630325872826E-19));
#817=CARTESIAN_POINT('',(-0.000633788248762638,0.000633788248762638,-1.62630325872826E-19));
#818=CARTESIAN_POINT('',(-0.000975160936205323,-0.000379102441856981,-1.62630325872826E-19));
#819=CARTESIAN_POINT('',(-0.000514520613246913,0.000987668574136867,-1.62630325872826E-19));
#820=CARTESIAN_POINT('',(-0.000514520613246913,-2.86675184905163E-19,-1.62630325872826E-19));
#821=CARTESIAN_POINT('',(-0.000514520613246913,0.0023,-1.62630325872826E-19));
#822=CARTESIAN_POINT('',(-0.0021,0.0023,-1.62630325872826E-19));
#823=CARTESIAN_POINT('',(0.000514520613246913,0.0023,-1.62630325872826E-19));
#824=CARTESIAN_POINT('',(0.000514520613246913,-4.72739151642871E-19,-1.62630325872826E-19));
#825=CARTESIAN_POINT('',(0.000514520613246913,0.000987668574136864,-1.62630325872826E-19));
#826=CARTESIAN_POINT('',(0.00054675336426,0.000892030420777867,-1.62630325872826E-19));
#827=CARTESIAN_POINT('',(0.000633788248762638,0.000633788248762638,-1.62630325872826E-19));
#828=CARTESIAN_POINT('',(-0.0016293322245669,0.00139652358155009,-1.62630325872826E-19));
#829=CARTESIAN_POINT('',(0.000987668574136865,0.000514520613246913,-1.62630325872826E-19));
#830=CARTESIAN_POINT('',(-0.0021,0.000514520613246913,-1.62630325872826E-19));
#831=CARTESIAN_POINT('',(0.0023,0.000514520613246913,-1.62630325872826E-19));
#832=CARTESIAN_POINT('',(0.0023,0.,-1.62630325872826E-19));
#833=CARTESIAN_POINT('',(0.0023,-0.000514520613246913,-1.62630325872826E-19));
#834=CARTESIAN_POINT('',(-0.0021,-0.000514520613246913,-1.62630325872826E-19));
#835=CARTESIAN_POINT('',(0.000987668574136865,-0.000514520613246913,-1.62630325872826E-19));
#836=CARTESIAN_POINT('',(-0.0016293322245669,-0.00139652358155009,-1.62630325872826E-19));
#837=CARTESIAN_POINT('',(0.000633788248762638,-0.000633788248762638,-1.62630325872826E-19));
#838=CARTESIAN_POINT('',(0.00054675336426,-0.000892030420777867,-1.62630325872826E-19));
#839=CARTESIAN_POINT('',(0.000514520613246913,-0.000987668574136865,-1.62630325872826E-19));
#840=CARTESIAN_POINT('',(0.000514520613246913,-4.72739151642873E-19,-1.62630325872826E-19));
#841=CARTESIAN_POINT('',(0.000514520613246913,-0.0023,-1.62630325872826E-19));
#842=CARTESIAN_POINT('',(-0.0021,-0.0023,-1.62630325872826E-19));
#843=CARTESIAN_POINT('',(0.,0.,0.));
#844=CARTESIAN_POINT('',(-0.0042,0.,0.));
#845=CARTESIAN_POINT('',(0.,0.,-0.007));
#846=CARTESIAN_POINT('',(0.,0.,-0.0005));
#847=CARTESIAN_POINT('',(-0.0042,0.,-0.0005));
#848=CARTESIAN_POINT('',(0.,0.,-0.0005));
#849=CARTESIAN_POINT('',(0.,0.,-0.00240710678118655));
#850=CARTESIAN_POINT('',(-0.00229289321881345,0.,-0.00240710678118655));
#851=CARTESIAN_POINT('',(0.,0.,-0.0031142135623731));
#852=CARTESIAN_POINT('',(-0.000624005418523807,-0.000210307399083665,-0.00149));
#853=CARTESIAN_POINT('',(-0.000371215202415643,-0.000964168968349468,-0.00147747132634835));
#854=CARTESIAN_POINT('',(-0.000364031723747381,-0.000962991002242625,-0.00155153261750425));
#855=CARTESIAN_POINT('',(-0.000364031723747382,-0.000962991002242622,-0.00155153261750426));
#856=CARTESIAN_POINT('',(-0.00040754422767249,-0.000813794189181329,-0.00161768546451226));
#857=CARTESIAN_POINT('',(-0.00045205858863061,-0.000662782516359944,-0.00168002607840749));
#858=CARTESIAN_POINT('',(-0.000501978575378954,-0.000501978575378972,-0.00172179738455354));
#859=CARTESIAN_POINT('',(-0.000501978575378959,-0.000501978575378959,-0.00172179738455354));
#860=CARTESIAN_POINT('',(-0.000518535234421372,-0.000518535234421372,-0.00150552181460206));
#861=CARTESIAN_POINT('',(-0.00037,6.69007867911363E-20,-0.00149));
#862=CARTESIAN_POINT('',(-0.000310211998811373,-0.0012589467521934,-0.00210641118017438));
#863=CARTESIAN_POINT('',(-0.00037,-0.00108357048686277,-0.00149));
#864=CARTESIAN_POINT('',(-0.000368003171593047,-0.00104341840038817,-0.00151058719693693));
#865=CARTESIAN_POINT('',(-0.000366012884579862,-0.00100323001936254,-0.0015311069524446));
#866=CARTESIAN_POINT('',(-0.000364031723747381,-0.000962991002242633,-0.00155153261750425));
#867=CARTESIAN_POINT('',(0.,-0.00156359613268696,-0.00149));
#868=CARTESIAN_POINT('',(0.000310211998811373,-0.0012589467521934,-0.00210641118017438));
#869=CARTESIAN_POINT('',(0.00037,-6.69007867911364E-20,-0.00149));
#870=CARTESIAN_POINT('',(0.000368527101064526,-0.000963728166277157,-0.00150518551135751));
#871=CARTESIAN_POINT('',(0.000364031723747381,-0.000962991002242626,-0.00155153261750425));
#872=CARTESIAN_POINT('',(0.000369999999999979,-0.00108357048686287,-0.00149000000000022));
#873=CARTESIAN_POINT('',(0.00036800303986227,-0.00104341575155543,-0.00151058855507438));
#874=CARTESIAN_POINT('',(0.000366012738691898,-0.0010032270562572,-0.00153110845654191));
#875=CARTESIAN_POINT('',(0.000364031723747382,-0.000962991002242649,-0.00155153261750424));
#876=CARTESIAN_POINT('',(0.000624005418523807,-0.000210307399083665,-0.00149));
#877=CARTESIAN_POINT('',(0.000518535234421373,-0.000518535234421372,-0.00150552181460206));
#878=CARTESIAN_POINT('',(0.000501978575378959,-0.000501978575378959,-0.00172179738455354));
#879=CARTESIAN_POINT('',(0.000364031723747377,-0.000962991002242637,-0.00155153261750425));
#880=CARTESIAN_POINT('',(0.000408007090783031,-0.00081220711202541,-0.001618389163674));
#881=CARTESIAN_POINT('',(0.00045288248891554,-0.000660128541040203,-0.0016807154894686));
#882=CARTESIAN_POINT('',(0.00050197857537895,-0.000501978575378988,-0.00172179738455353));
#883=CARTESIAN_POINT('',(0.000210307399083665,-0.000624005418523807,-0.00149));
#884=CARTESIAN_POINT('',(0.000964168968349468,-0.000371215202415643,-0.00147747132634835));
#885=CARTESIAN_POINT('',(0.000962991002242626,-0.000364031723747381,-0.00155153261750425));
#886=CARTESIAN_POINT('',(0.000962991002242614,-0.000364031723747384,-0.00155153261750426));
#887=CARTESIAN_POINT('',(0.000813794189181325,-0.000407544227672491,-0.00161768546451226));
#888=CARTESIAN_POINT('',(0.000662782516359948,-0.000452058588630608,-0.00168002607840749));
#889=CARTESIAN_POINT('',(0.000501978575378981,-0.000501978575378951,-0.00172179738455354));
#890=CARTESIAN_POINT('',(0.,-0.00037,-0.00149));
#891=CARTESIAN_POINT('',(0.0012589467521934,-0.000310211998811373,-0.00210641118017438));
#892=CARTESIAN_POINT('',(0.00156359613268696,-0.00037,-0.00149));
#893=CARTESIAN_POINT('',(0.,-0.00037,-0.00149));
#894=CARTESIAN_POINT('',(0.00108357048686276,-0.00037,-0.00149));
#895=CARTESIAN_POINT('',(0.00108357048686277,-0.00037,-0.00149));
#896=CARTESIAN_POINT('',(0.00104341840038818,-0.000368003171593047,-0.00151058719693693));
#897=CARTESIAN_POINT('',(0.00100323001936254,-0.000366012884579861,-0.00153110695244461));
#898=CARTESIAN_POINT('',(0.000962991002242633,-0.000364031723747381,-0.00155153261750425));
#899=CARTESIAN_POINT('',(0.00156359613268696,0.,-0.00149));
#900=CARTESIAN_POINT('',(0.0012589467521934,0.000310211998811373,-0.00210641118017438));
#901=CARTESIAN_POINT('',(0.00156359613268696,0.00037,-0.00149));
#902=CARTESIAN_POINT('',(0.00156359613268696,0.,-0.00149));
#903=CARTESIAN_POINT('',(0.,0.00037,-0.00149));
#904=CARTESIAN_POINT('',(0.000963728166277157,0.000368527101064526,-0.00150518551135751));
#905=CARTESIAN_POINT('',(0.000962991002242626,0.000364031723747381,-0.00155153261750425));
#906=CARTESIAN_POINT('',(0.00108357048686287,0.000369999999999979,-0.00149000000000022));
#907=CARTESIAN_POINT('',(0.00104341575155543,0.00036800303986227,-0.00151058855507438));
#908=CARTESIAN_POINT('',(0.0010032270562572,0.000366012738691899,-0.00153110845654191));
#909=CARTESIAN_POINT('',(0.00096299100224265,0.000364031723747382,-0.00155153261750424));
#910=CARTESIAN_POINT('',(0.00108357048686276,0.00037,-0.00149));
#911=CARTESIAN_POINT('',(0.,0.00037,-0.00149));
#912=CARTESIAN_POINT('',(0.000210307399083665,0.000624005418523807,-0.00149));
#913=CARTESIAN_POINT('',(0.000518535234421372,0.000518535234421373,-0.00150552181460206));
#914=CARTESIAN_POINT('',(0.000501978575378959,0.00050197857537896,-0.00172179738455353));
#915=CARTESIAN_POINT('',(0.000962991002242625,0.000364031723747381,-0.00155153261750425));
#916=CARTESIAN_POINT('',(0.000812207112025398,0.000408007090783034,-0.00161838916367401));
#917=CARTESIAN_POINT('',(0.000660128541040204,0.00045288248891554,-0.0016807154894686));
#918=CARTESIAN_POINT('',(0.000501978575378989,0.00050197857537895,-0.00172179738455353));
#919=CARTESIAN_POINT('',(0.000624005418523807,0.000210307399083665,-0.00149));
#920=CARTESIAN_POINT('',(0.000368527101064526,0.000963728166277156,-0.00150518551135751));
#921=CARTESIAN_POINT('',(0.000364031723747381,0.000962991002242625,-0.00155153261750425));
#922=CARTESIAN_POINT('',(0.000364031723747384,0.000962991002242614,-0.00155153261750426));
#923=CARTESIAN_POINT('',(0.000407544227672491,0.000813794189181325,-0.00161768546451226));
#924=CARTESIAN_POINT('',(0.000452058588630613,0.000662782516359932,-0.00168002607840749));
#925=CARTESIAN_POINT('',(0.000501978575378956,0.000501978575378964,-0.00172179738455354));
#926=CARTESIAN_POINT('',(0.00037,-6.69007867911362E-20,-0.00149));
#927=CARTESIAN_POINT('',(0.000310211998811373,0.0012589467521934,-0.00210641118017438));
#928=CARTESIAN_POINT('',(0.00037,0.00108357048686276,-0.00149));
#929=CARTESIAN_POINT('',(0.000368003171593047,0.00104341840038817,-0.00151058719693693));
#930=CARTESIAN_POINT('',(0.000366012884579862,0.00100323001936254,-0.00153110695244461));
#931=CARTESIAN_POINT('',(0.000364031723747381,0.00096299100224263,-0.00155153261750425));
#932=CARTESIAN_POINT('',(0.,0.00156359613268696,-0.00149));
#933=CARTESIAN_POINT('',(-0.000310211998811372,0.0012589467521934,-0.00210641118017438));
#934=CARTESIAN_POINT('',(-0.00037,6.69007867911366E-20,-0.00149));
#935=CARTESIAN_POINT('',(-0.000371215202415642,0.00096416896834947,-0.00147747132634835));
#936=CARTESIAN_POINT('',(-0.000364031723747381,0.000962991002242628,-0.00155153261750425));
#937=CARTESIAN_POINT('',(-0.000369999999999979,0.00108357048686287,-0.00149000000000022));
#938=CARTESIAN_POINT('',(-0.00036800303986227,0.00104341575155543,-0.00151058855507438));
#939=CARTESIAN_POINT('',(-0.000366012738691899,0.0010032270562572,-0.00153110845654191));
#940=CARTESIAN_POINT('',(-0.000364031723747382,0.000962991002242651,-0.00155153261750424));
#941=CARTESIAN_POINT('',(-0.000624005418523807,0.000210307399083665,-0.00149));
#942=CARTESIAN_POINT('',(-0.000518535234421373,0.000518535234421372,-0.00150552181460206));
#943=CARTESIAN_POINT('',(-0.00050197857537896,0.000501978575378959,-0.00172179738455353));
#944=CARTESIAN_POINT('',(-0.000364031723747384,0.000962991002242615,-0.00155153261750426));
#945=CARTESIAN_POINT('',(-0.000408007090783035,0.000812207112025395,-0.00161838916367401));
#946=CARTESIAN_POINT('',(-0.00045288248891555,0.000660128541040171,-0.00168071548946861));
#947=CARTESIAN_POINT('',(-0.000501978575378958,0.000501978575378963,-0.00172179738455353));
#948=CARTESIAN_POINT('',(-0.000210307399083665,0.000624005418523807,-0.00149));
#949=CARTESIAN_POINT('',(-0.000963728166277156,0.000368527101064526,-0.00150518551135751));
#950=CARTESIAN_POINT('',(-0.000962991002242625,0.000364031723747381,-0.00155153261750425));
#951=CARTESIAN_POINT('',(-0.000962991002242636,0.000364031723747378,-0.00155153261750425));
#952=CARTESIAN_POINT('',(-0.00081379418918134,0.000407544227672487,-0.00161768546451226));
#953=CARTESIAN_POINT('',(-0.000662782516359936,0.000452058588630612,-0.00168002607840749));
#954=CARTESIAN_POINT('',(-0.000501978575378959,0.000501978575378958,-0.00172179738455354));
#955=CARTESIAN_POINT('',(0.,0.00037,-0.00149));
#956=CARTESIAN_POINT('',(-0.0012589467521934,0.000310211998811373,-0.00210641118017438));
#957=CARTESIAN_POINT('',(-0.00108357048686276,0.00037,-0.00149));
#958=CARTESIAN_POINT('',(-0.00104341840038817,0.000368003171593047,-0.00151058719693693));
#959=CARTESIAN_POINT('',(-0.00100323001936254,0.000366012884579862,-0.00153110695244461));
#960=CARTESIAN_POINT('',(-0.00096299100224263,0.000364031723747381,-0.00155153261750425));
#961=CARTESIAN_POINT('',(-0.00156359613268696,0.,-0.00149));
#962=CARTESIAN_POINT('',(-0.0012589467521934,-0.000310211998811373,-0.00210641118017438));
#963=CARTESIAN_POINT('',(0.,-0.00037,-0.00149));
#964=CARTESIAN_POINT('',(-0.000964168968349468,-0.000371215202415643,-0.00147747132634835));
#965=CARTESIAN_POINT('',(-0.000962991002242626,-0.000364031723747381,-0.00155153261750425));
#966=CARTESIAN_POINT('',(-0.00108357048686279,-0.000369999999999995,-0.00149000000000005));
#967=CARTESIAN_POINT('',(-0.00104341575155535,-0.000368003039862286,-0.00151058855507422));
#968=CARTESIAN_POINT('',(-0.00100322705625717,-0.000366012738691897,-0.00153110845654193));
#969=CARTESIAN_POINT('',(-0.000962991002242624,-0.000364031723747381,-0.00155153261750426));
#970=CARTESIAN_POINT('',(-0.000210307399083665,-0.000624005418523807,-0.00149));
#971=CARTESIAN_POINT('',(-0.000962991002242634,-0.000364031723747379,-0.00155153261750425));
#972=CARTESIAN_POINT('',(-0.000812207112025408,-0.000408007090783032,-0.001618389163674));
#973=CARTESIAN_POINT('',(-0.000660128541040191,-0.000452882488915543,-0.00168071548946861));
#974=CARTESIAN_POINT('',(-0.000501978575378977,-0.000501978575378954,-0.00172179738455353));
#975=CARTESIAN_POINT('',(0.,0.,-0.00149));
#976=CARTESIAN_POINT('',(2.77006986981629E-19,0.,-0.00149));
#977=CARTESIAN_POINT('',(2.77006986981629E-19,0.,-0.00149));
#978=CARTESIAN_POINT('',(8.13151629364128E-20,0.,-0.0021));
#979=CARTESIAN_POINT('',(0.,0.,-0.014));
#980=MECHANICAL_DESIGN_GEOMETRIC_PRESENTATION_REPRESENTATION('',(#574),
#981);
#981=(
GEOMETRIC_REPRESENTATION_CONTEXT(3)
GLOBAL_UNCERTAINTY_ASSIGNED_CONTEXT((#982))
GLOBAL_UNIT_ASSIGNED_CONTEXT((#985,#984,#983))
REPRESENTATION_CONTEXT('PH Countersunk flat head screw M4x0.7 x 14',
'TOP_LEVEL_ASSEMBLY_PART')
);
#982=UNCERTAINTY_MEASURE_WITH_UNIT(LENGTH_MEASURE(2.E-5),#985,
'DISTANCE_ACCURACY_VALUE','Maximum Tolerance applied to model');
#983=(
NAMED_UNIT(*)
SI_UNIT($,.STERADIAN.)
SOLID_ANGLE_UNIT()
);
#984=(
NAMED_UNIT(*)
PLANE_ANGLE_UNIT()
SI_UNIT($,.RADIAN.)
);
#985=(
LENGTH_UNIT()
NAMED_UNIT(*)
SI_UNIT($,.METRE.)
);
#986=PRODUCT_DEFINITION_SHAPE('','',#987);
#987=PRODUCT_DEFINITION('','',#989,#988);
#988=PRODUCT_DEFINITION_CONTEXT('',#995,'design');
#989=PRODUCT_DEFINITION_FORMATION_WITH_SPECIFIED_SOURCE('','',#991,
 .NOT_KNOWN.);
#990=PRODUCT_RELATED_PRODUCT_CATEGORY('','',(#991));
#991=PRODUCT('PH Countersunk flat head screw M4x0.7 x 14',
'PH Countersunk flat head screw M4x0.7 x 14',
'PH Countersunk flat head screw M4x0.7 x 14',(#993));
#992=PRODUCT_CATEGORY('','');
#993=PRODUCT_CONTEXT('',#995,'mechanical');
#994=APPLICATION_PROTOCOL_DEFINITION('international standard',
'ap242_managed_model_based_3d_engineering',2020,#995);
#995=APPLICATION_CONTEXT('managed model based 3d engineering');
ENDSEC;
END-ISO-10303-21;
