ISO-10303-21;
HEADER;
/* Generated by software containing ST-Developer
 * from STEP Tools, Inc. (www.steptools.com) 
 */
/* OPTION: using custom renumber hook */

FILE_DESCRIPTION(
/* description */ ('STEP AP242 Edition 2',
'CAx-IF Rec.Pracs.---Representation and Presentation of Product Manufa
cturing Information (PMI)---4.0---2014-10-13',
'CAx-IF Rec.Pracs.---3D Tessellated Geometry---0.4---2014-09-14','2;1',
'CAx-IF Rec.Pracs.---User Defined Attributes---1.5---2016-08-15'),
/* implementation_level */ '2;1');

FILE_NAME(
/* name */ '6a7dfa886343551e634398a7',
/* time_stamp */ '2026-08-13T17:10:33Z',
/* author */ (''),
/* organization */ (''),
/* preprocessor_version */ 'ST-DEVELOPER v20',
/* originating_system */ 'ONSHAPE BY PTC INC, 1.219',
/* authorisation */ '  ');

FILE_SCHEMA (('AP242_MANAGED_MODEL_BASED_3D_ENGINEERING_MIM_LF { 1 0 10303 442 3 1 4 }'));
ENDSEC;

DATA;
#10=SHAPE_REPRESENTATION_RELATIONSHIP('','',#592,#11);
#11=ADVANCED_BREP_SHAPE_REPRESENTATION('',(#590),#973);
#12=VERTEX_LOOP('',#435);
#13=B_SPLINE_CURVE_WITH_KNOTS('',3,(#882,#883,#884,#885),.UNSPECIFIED.,
 .F.,.F.,(4,4),(0.0141745941311282,0.0144252149205535),.UNSPECIFIED.);
#14=B_SPLINE_CURVE_WITH_KNOTS('',3,(#897,#898,#899,#900),.UNSPECIFIED.,
 .F.,.F.,(4,4),(0.0141745941311282,0.0144252149205535),.UNSPECIFIED.);
#15=B_SPLINE_CURVE_WITH_KNOTS('',3,(#906,#907,#908,#909),.UNSPECIFIED.,
 .F.,.F.,(4,4),(0.0141745941311282,0.0144252149205535),.UNSPECIFIED.);
#16=B_SPLINE_CURVE_WITH_KNOTS('',3,(#925,#926,#927,#928),.UNSPECIFIED.,
 .F.,.F.,(4,4),(0.0141745941311282,0.0144252149205535),.UNSPECIFIED.);
#17=B_SPLINE_CURVE_WITH_KNOTS('',3,(#933,#934,#935,#936),.UNSPECIFIED.,
 .F.,.F.,(4,4),(0.0141745941311282,0.0144252149205535),.UNSPECIFIED.);
#18=B_SPLINE_CURVE_WITH_KNOTS('',3,(#946,#947,#948,#949),.UNSPECIFIED.,
 .F.,.F.,(4,4),(0.0141745941311282,0.0144252149205535),.UNSPECIFIED.);
#19=B_SPLINE_CURVE_WITH_KNOTS('',3,(#952,#953,#954,#955),.UNSPECIFIED.,
 .F.,.F.,(4,4),(0.0141745941311282,0.0144252149205535),.UNSPECIFIED.);
#20=B_SPLINE_CURVE_WITH_KNOTS('',3,(#963,#964,#965,#966),.UNSPECIFIED.,
 .F.,.F.,(4,4),(0.0141745941311282,0.0144252149205535),.UNSPECIFIED.);
#21=TOROIDAL_SURFACE('',#611,0.0023,0.0008);
#22=CONICAL_SURFACE('',#609,0.00275,0.785398163397449);
#23=CONICAL_SURFACE('',#634,0.000635,1.07920568227125);
#24=CONICAL_SURFACE('',#635,0.0012293670625,0.78539816339745);
#25=CYLINDRICAL_SURFACE('',#600,0.0015);
#26=CYLINDRICAL_SURFACE('',#607,0.00275);
#27=LINE('',#787,#87);
#28=LINE('',#789,#88);
#29=LINE('',#791,#89);
#30=LINE('',#793,#90);
#31=LINE('',#795,#91);
#32=LINE('',#800,#92);
#33=LINE('',#802,#93);
#34=LINE('',#804,#94);
#35=LINE('',#806,#95);
#36=LINE('',#808,#96);
#37=LINE('',#813,#97);
#38=LINE('',#815,#98);
#39=LINE('',#817,#99);
#40=LINE('',#819,#100);
#41=LINE('',#821,#101);
#42=LINE('',#831,#102);
#43=LINE('',#834,#103);
#44=LINE('',#836,#104);
#45=LINE('',#838,#105);
#46=LINE('',#840,#106);
#47=LINE('',#842,#107);
#48=LINE('',#844,#108);
#49=LINE('',#846,#109);
#50=LINE('',#848,#110);
#51=LINE('',#850,#111);
#52=LINE('',#852,#112);
#53=LINE('',#854,#113);
#54=LINE('',#856,#114);
#55=LINE('',#858,#115);
#56=LINE('',#860,#116);
#57=LINE('',#862,#117);
#58=LINE('',#864,#118);
#59=LINE('',#866,#119);
#60=LINE('',#868,#120);
#61=LINE('',#870,#121);
#62=LINE('',#881,#122);
#63=LINE('',#887,#123);
#64=LINE('',#889,#124);
#65=LINE('',#891,#125);
#66=LINE('',#893,#126);
#67=LINE('',#895,#127);
#68=LINE('',#902,#128);
#69=LINE('',#904,#129);
#70=LINE('',#911,#130);
#71=LINE('',#913,#131);
#72=LINE('',#915,#132);
#73=LINE('',#917,#133);
#74=LINE('',#919,#134);
#75=LINE('',#921,#135);
#76=LINE('',#923,#136);
#77=LINE('',#930,#137);
#78=LINE('',#932,#138);
#79=LINE('',#938,#139);
#80=LINE('',#940,#140);
#81=LINE('',#942,#141);
#82=LINE('',#944,#142);
#83=LINE('',#951,#143);
#84=LINE('',#957,#144);
#85=LINE('',#959,#145);
#86=LINE('',#961,#146);
#87=VECTOR('',#642,1.);
#88=VECTOR('',#643,1.);
#89=VECTOR('',#644,1.);
#90=VECTOR('',#645,1.);
#91=VECTOR('',#646,1.);
#92=VECTOR('',#651,1.);
#93=VECTOR('',#652,1.);
#94=VECTOR('',#653,1.);
#95=VECTOR('',#654,1.);
#96=VECTOR('',#655,1.);
#97=VECTOR('',#660,1.);
#98=VECTOR('',#661,1.);
#99=VECTOR('',#662,1.);
#100=VECTOR('',#663,1.);
#101=VECTOR('',#664,1.);
#102=VECTOR('',#677,1.);
#103=VECTOR('',#678,1.);
#104=VECTOR('',#679,1.);
#105=VECTOR('',#680,1.);
#106=VECTOR('',#681,1.);
#107=VECTOR('',#682,1.);
#108=VECTOR('',#683,1.);
#109=VECTOR('',#684,1.);
#110=VECTOR('',#685,1.);
#111=VECTOR('',#686,1.);
#112=VECTOR('',#687,1.);
#113=VECTOR('',#688,1.);
#114=VECTOR('',#689,1.);
#115=VECTOR('',#690,1.);
#116=VECTOR('',#691,1.);
#117=VECTOR('',#692,1.);
#118=VECTOR('',#693,1.);
#119=VECTOR('',#694,1.);
#120=VECTOR('',#695,1.);
#121=VECTOR('',#696,1.);
#122=VECTOR('',#711,1.);
#123=VECTOR('',#712,1.);
#124=VECTOR('',#715,1.);
#125=VECTOR('',#718,1.);
#126=VECTOR('',#721,1.);
#127=VECTOR('',#724,1.);
#128=VECTOR('',#727,1.);
#129=VECTOR('',#728,1.);
#130=VECTOR('',#731,1.);
#131=VECTOR('',#732,1.);
#132=VECTOR('',#735,1.);
#133=VECTOR('',#736,1.);
#134=VECTOR('',#739,1.);
#135=VECTOR('',#740,1.);
#136=VECTOR('',#743,1.);
#137=VECTOR('',#744,1.);
#138=VECTOR('',#747,1.);
#139=VECTOR('',#750,1.);
#140=VECTOR('',#753,1.);
#141=VECTOR('',#756,1.);
#142=VECTOR('',#759,1.);
#143=VECTOR('',#762,1.);
#144=VECTOR('',#765,1.);
#145=VECTOR('',#768,1.);
#146=VECTOR('',#771,1.);
#147=ORIENTED_EDGE('',*,*,#303,.F.);
#148=ORIENTED_EDGE('',*,*,#304,.F.);
#149=ORIENTED_EDGE('',*,*,#305,.T.);
#150=ORIENTED_EDGE('',*,*,#306,.F.);
#151=ORIENTED_EDGE('',*,*,#307,.F.);
#152=ORIENTED_EDGE('',*,*,#308,.T.);
#153=ORIENTED_EDGE('',*,*,#309,.F.);
#154=ORIENTED_EDGE('',*,*,#310,.F.);
#155=ORIENTED_EDGE('',*,*,#311,.T.);
#156=ORIENTED_EDGE('',*,*,#312,.F.);
#157=ORIENTED_EDGE('',*,*,#313,.F.);
#158=ORIENTED_EDGE('',*,*,#314,.T.);
#159=ORIENTED_EDGE('',*,*,#315,.F.);
#160=ORIENTED_EDGE('',*,*,#316,.F.);
#161=ORIENTED_EDGE('',*,*,#317,.F.);
#162=ORIENTED_EDGE('',*,*,#318,.T.);
#163=ORIENTED_EDGE('',*,*,#319,.T.);
#164=ORIENTED_EDGE('',*,*,#320,.T.);
#165=ORIENTED_EDGE('',*,*,#321,.T.);
#166=ORIENTED_EDGE('',*,*,#322,.T.);
#167=ORIENTED_EDGE('',*,*,#323,.T.);
#168=ORIENTED_EDGE('',*,*,#324,.T.);
#169=ORIENTED_EDGE('',*,*,#325,.T.);
#170=ORIENTED_EDGE('',*,*,#326,.F.);
#171=ORIENTED_EDGE('',*,*,#327,.T.);
#172=ORIENTED_EDGE('',*,*,#328,.T.);
#173=ORIENTED_EDGE('',*,*,#329,.F.);
#174=ORIENTED_EDGE('',*,*,#330,.T.);
#175=ORIENTED_EDGE('',*,*,#331,.F.);
#176=ORIENTED_EDGE('',*,*,#332,.T.);
#177=ORIENTED_EDGE('',*,*,#333,.T.);
#178=ORIENTED_EDGE('',*,*,#334,.F.);
#179=ORIENTED_EDGE('',*,*,#335,.T.);
#180=ORIENTED_EDGE('',*,*,#336,.F.);
#181=ORIENTED_EDGE('',*,*,#337,.F.);
#182=ORIENTED_EDGE('',*,*,#338,.F.);
#183=ORIENTED_EDGE('',*,*,#339,.T.);
#184=ORIENTED_EDGE('',*,*,#340,.T.);
#185=ORIENTED_EDGE('',*,*,#341,.F.);
#186=ORIENTED_EDGE('',*,*,#342,.F.);
#187=ORIENTED_EDGE('',*,*,#343,.F.);
#188=ORIENTED_EDGE('',*,*,#344,.F.);
#189=ORIENTED_EDGE('',*,*,#345,.F.);
#190=ORIENTED_EDGE('',*,*,#344,.T.);
#191=ORIENTED_EDGE('',*,*,#346,.F.);
#192=ORIENTED_EDGE('',*,*,#345,.T.);
#193=ORIENTED_EDGE('',*,*,#346,.T.);
#194=ORIENTED_EDGE('',*,*,#322,.F.);
#195=ORIENTED_EDGE('',*,*,#347,.T.);
#196=ORIENTED_EDGE('',*,*,#316,.T.);
#197=ORIENTED_EDGE('',*,*,#348,.T.);
#198=ORIENTED_EDGE('',*,*,#349,.F.);
#199=ORIENTED_EDGE('',*,*,#325,.F.);
#200=ORIENTED_EDGE('',*,*,#350,.T.);
#201=ORIENTED_EDGE('',*,*,#317,.T.);
#202=ORIENTED_EDGE('',*,*,#347,.F.);
#203=ORIENTED_EDGE('',*,*,#324,.F.);
#204=ORIENTED_EDGE('',*,*,#343,.T.);
#205=ORIENTED_EDGE('',*,*,#351,.T.);
#206=ORIENTED_EDGE('',*,*,#318,.F.);
#207=ORIENTED_EDGE('',*,*,#350,.F.);
#208=ORIENTED_EDGE('',*,*,#342,.T.);
#209=ORIENTED_EDGE('',*,*,#352,.T.);
#210=ORIENTED_EDGE('',*,*,#319,.F.);
#211=ORIENTED_EDGE('',*,*,#351,.F.);
#212=ORIENTED_EDGE('',*,*,#341,.T.);
#213=ORIENTED_EDGE('',*,*,#353,.T.);
#214=ORIENTED_EDGE('',*,*,#354,.F.);
#215=ORIENTED_EDGE('',*,*,#320,.F.);
#216=ORIENTED_EDGE('',*,*,#352,.F.);
#217=ORIENTED_EDGE('',*,*,#355,.T.);
#218=ORIENTED_EDGE('',*,*,#356,.T.);
#219=ORIENTED_EDGE('',*,*,#357,.T.);
#220=ORIENTED_EDGE('',*,*,#353,.F.);
#221=ORIENTED_EDGE('',*,*,#340,.F.);
#222=ORIENTED_EDGE('',*,*,#358,.T.);
#223=ORIENTED_EDGE('',*,*,#359,.T.);
#224=ORIENTED_EDGE('',*,*,#355,.F.);
#225=ORIENTED_EDGE('',*,*,#339,.F.);
#226=ORIENTED_EDGE('',*,*,#338,.T.);
#227=ORIENTED_EDGE('',*,*,#360,.T.);
#228=ORIENTED_EDGE('',*,*,#361,.F.);
#229=ORIENTED_EDGE('',*,*,#358,.F.);
#230=ORIENTED_EDGE('',*,*,#337,.T.);
#231=ORIENTED_EDGE('',*,*,#362,.T.);
#232=ORIENTED_EDGE('',*,*,#363,.F.);
#233=ORIENTED_EDGE('',*,*,#360,.F.);
#234=ORIENTED_EDGE('',*,*,#336,.T.);
#235=ORIENTED_EDGE('',*,*,#364,.T.);
#236=ORIENTED_EDGE('',*,*,#365,.F.);
#237=ORIENTED_EDGE('',*,*,#366,.F.);
#238=ORIENTED_EDGE('',*,*,#362,.F.);
#239=ORIENTED_EDGE('',*,*,#367,.T.);
#240=ORIENTED_EDGE('',*,*,#304,.T.);
#241=ORIENTED_EDGE('',*,*,#368,.T.);
#242=ORIENTED_EDGE('',*,*,#364,.F.);
#243=ORIENTED_EDGE('',*,*,#335,.F.);
#244=ORIENTED_EDGE('',*,*,#334,.T.);
#245=ORIENTED_EDGE('',*,*,#369,.T.);
#246=ORIENTED_EDGE('',*,*,#305,.F.);
#247=ORIENTED_EDGE('',*,*,#367,.F.);
#248=ORIENTED_EDGE('',*,*,#370,.T.);
#249=ORIENTED_EDGE('',*,*,#306,.T.);
#250=ORIENTED_EDGE('',*,*,#369,.F.);
#251=ORIENTED_EDGE('',*,*,#333,.F.);
#252=ORIENTED_EDGE('',*,*,#371,.T.);
#253=ORIENTED_EDGE('',*,*,#307,.T.);
#254=ORIENTED_EDGE('',*,*,#370,.F.);
#255=ORIENTED_EDGE('',*,*,#332,.F.);
#256=ORIENTED_EDGE('',*,*,#331,.T.);
#257=ORIENTED_EDGE('',*,*,#372,.T.);
#258=ORIENTED_EDGE('',*,*,#373,.F.);
#259=ORIENTED_EDGE('',*,*,#308,.F.);
#260=ORIENTED_EDGE('',*,*,#371,.F.);
#261=ORIENTED_EDGE('',*,*,#374,.T.);
#262=ORIENTED_EDGE('',*,*,#310,.T.);
#263=ORIENTED_EDGE('',*,*,#375,.T.);
#264=ORIENTED_EDGE('',*,*,#372,.F.);
#265=ORIENTED_EDGE('',*,*,#330,.F.);
#266=ORIENTED_EDGE('',*,*,#329,.T.);
#267=ORIENTED_EDGE('',*,*,#376,.T.);
#268=ORIENTED_EDGE('',*,*,#311,.F.);
#269=ORIENTED_EDGE('',*,*,#374,.F.);
#270=ORIENTED_EDGE('',*,*,#377,.T.);
#271=ORIENTED_EDGE('',*,*,#312,.T.);
#272=ORIENTED_EDGE('',*,*,#376,.F.);
#273=ORIENTED_EDGE('',*,*,#328,.F.);
#274=ORIENTED_EDGE('',*,*,#378,.T.);
#275=ORIENTED_EDGE('',*,*,#313,.T.);
#276=ORIENTED_EDGE('',*,*,#377,.F.);
#277=ORIENTED_EDGE('',*,*,#327,.F.);
#278=ORIENTED_EDGE('',*,*,#326,.T.);
#279=ORIENTED_EDGE('',*,*,#349,.T.);
#280=ORIENTED_EDGE('',*,*,#379,.F.);
#281=ORIENTED_EDGE('',*,*,#314,.F.);
#282=ORIENTED_EDGE('',*,*,#378,.F.);
#283=ORIENTED_EDGE('',*,*,#380,.F.);
#284=ORIENTED_EDGE('',*,*,#356,.F.);
#285=ORIENTED_EDGE('',*,*,#359,.F.);
#286=ORIENTED_EDGE('',*,*,#361,.T.);
#287=ORIENTED_EDGE('',*,*,#363,.T.);
#288=ORIENTED_EDGE('',*,*,#366,.T.);
#289=ORIENTED_EDGE('',*,*,#365,.T.);
#290=ORIENTED_EDGE('',*,*,#368,.F.);
#291=ORIENTED_EDGE('',*,*,#303,.T.);
#292=ORIENTED_EDGE('',*,*,#373,.T.);
#293=ORIENTED_EDGE('',*,*,#375,.F.);
#294=ORIENTED_EDGE('',*,*,#309,.T.);
#295=ORIENTED_EDGE('',*,*,#379,.T.);
#296=ORIENTED_EDGE('',*,*,#348,.F.);
#297=ORIENTED_EDGE('',*,*,#315,.T.);
#298=ORIENTED_EDGE('',*,*,#354,.T.);
#299=ORIENTED_EDGE('',*,*,#357,.F.);
#300=ORIENTED_EDGE('',*,*,#380,.T.);
#301=ORIENTED_EDGE('',*,*,#321,.F.);
#302=ORIENTED_EDGE('',*,*,#323,.F.);
#303=EDGE_CURVE('',#381,#382,#436,.T.);
#304=EDGE_CURVE('',#383,#381,#27,.F.);
#305=EDGE_CURVE('',#383,#384,#28,.T.);
#306=EDGE_CURVE('',#385,#384,#29,.F.);
#307=EDGE_CURVE('',#386,#385,#30,.F.);
#308=EDGE_CURVE('',#386,#382,#31,.T.);
#309=EDGE_CURVE('',#387,#388,#437,.T.);
#310=EDGE_CURVE('',#389,#387,#32,.F.);
#311=EDGE_CURVE('',#389,#390,#33,.T.);
#312=EDGE_CURVE('',#391,#390,#34,.F.);
#313=EDGE_CURVE('',#392,#391,#35,.F.);
#314=EDGE_CURVE('',#392,#388,#36,.T.);
#315=EDGE_CURVE('',#393,#394,#438,.T.);
#316=EDGE_CURVE('',#395,#393,#37,.F.);
#317=EDGE_CURVE('',#396,#395,#38,.F.);
#318=EDGE_CURVE('',#396,#397,#39,.T.);
#319=EDGE_CURVE('',#397,#398,#40,.T.);
#320=EDGE_CURVE('',#398,#394,#41,.T.);
#321=EDGE_CURVE('',#399,#399,#439,.T.);
#322=EDGE_CURVE('',#400,#400,#440,.T.);
#323=EDGE_CURVE('',#401,#401,#441,.F.);
#324=EDGE_CURVE('',#402,#403,#42,.F.);
#325=EDGE_CURVE('',#403,#404,#43,.F.);
#326=EDGE_CURVE('',#405,#404,#44,.T.);
#327=EDGE_CURVE('',#405,#406,#45,.F.);
#328=EDGE_CURVE('',#406,#407,#46,.F.);
#329=EDGE_CURVE('',#408,#407,#47,.T.);
#330=EDGE_CURVE('',#408,#409,#48,.F.);
#331=EDGE_CURVE('',#410,#409,#49,.T.);
#332=EDGE_CURVE('',#410,#411,#50,.F.);
#333=EDGE_CURVE('',#411,#412,#51,.F.);
#334=EDGE_CURVE('',#413,#412,#52,.T.);
#335=EDGE_CURVE('',#413,#414,#53,.F.);
#336=EDGE_CURVE('',#415,#414,#54,.T.);
#337=EDGE_CURVE('',#416,#415,#55,.T.);
#338=EDGE_CURVE('',#417,#416,#56,.T.);
#339=EDGE_CURVE('',#417,#418,#57,.F.);
#340=EDGE_CURVE('',#418,#419,#58,.F.);
#341=EDGE_CURVE('',#420,#419,#59,.T.);
#342=EDGE_CURVE('',#421,#420,#60,.T.);
#343=EDGE_CURVE('',#402,#421,#61,.T.);
#344=EDGE_CURVE('',#422,#422,#442,.T.);
#345=EDGE_CURVE('',#423,#423,#443,.T.);
#346=EDGE_CURVE('',#424,#424,#444,.T.);
#347=EDGE_CURVE('',#403,#395,#62,.T.);
#348=EDGE_CURVE('',#393,#425,#13,.T.);
#349=EDGE_CURVE('',#404,#425,#63,.F.);
#350=EDGE_CURVE('',#402,#396,#64,.F.);
#351=EDGE_CURVE('',#421,#397,#65,.T.);
#352=EDGE_CURVE('',#420,#398,#66,.T.);
#353=EDGE_CURVE('',#419,#426,#67,.F.);
#354=EDGE_CURVE('',#394,#426,#14,.T.);
#355=EDGE_CURVE('',#418,#427,#68,.T.);
#356=EDGE_CURVE('',#427,#428,#69,.F.);
#357=EDGE_CURVE('',#428,#426,#15,.T.);
#358=EDGE_CURVE('',#417,#429,#70,.F.);
#359=EDGE_CURVE('',#429,#427,#71,.F.);
#360=EDGE_CURVE('',#416,#430,#72,.T.);
#361=EDGE_CURVE('',#429,#430,#73,.T.);
#362=EDGE_CURVE('',#415,#431,#74,.T.);
#363=EDGE_CURVE('',#430,#431,#75,.T.);
#364=EDGE_CURVE('',#414,#432,#76,.F.);
#365=EDGE_CURVE('',#433,#432,#16,.T.);
#366=EDGE_CURVE('',#431,#433,#77,.T.);
#367=EDGE_CURVE('',#413,#383,#78,.F.);
#368=EDGE_CURVE('',#381,#432,#17,.T.);
#369=EDGE_CURVE('',#412,#384,#79,.F.);
#370=EDGE_CURVE('',#411,#385,#80,.T.);
#371=EDGE_CURVE('',#410,#386,#81,.F.);
#372=EDGE_CURVE('',#409,#434,#82,.F.);
#373=EDGE_CURVE('',#382,#434,#18,.T.);
#374=EDGE_CURVE('',#408,#389,#83,.F.);
#375=EDGE_CURVE('',#387,#434,#19,.T.);
#376=EDGE_CURVE('',#407,#390,#84,.F.);
#377=EDGE_CURVE('',#406,#391,#85,.T.);
#378=EDGE_CURVE('',#405,#392,#86,.F.);
#379=EDGE_CURVE('',#388,#425,#20,.T.);
#380=EDGE_CURVE('',#428,#433,#445,.T.);
#381=VERTEX_POINT('',#785);
#382=VERTEX_POINT('',#786);
#383=VERTEX_POINT('',#788);
#384=VERTEX_POINT('',#790);
#385=VERTEX_POINT('',#792);
#386=VERTEX_POINT('',#794);
#387=VERTEX_POINT('',#798);
#388=VERTEX_POINT('',#799);
#389=VERTEX_POINT('',#801);
#390=VERTEX_POINT('',#803);
#391=VERTEX_POINT('',#805);
#392=VERTEX_POINT('',#807);
#393=VERTEX_POINT('',#811);
#394=VERTEX_POINT('',#812);
#395=VERTEX_POINT('',#814);
#396=VERTEX_POINT('',#816);
#397=VERTEX_POINT('',#818);
#398=VERTEX_POINT('',#820);
#399=VERTEX_POINT('',#824);
#400=VERTEX_POINT('',#826);
#401=VERTEX_POINT('',#829);
#402=VERTEX_POINT('',#832);
#403=VERTEX_POINT('',#833);
#404=VERTEX_POINT('',#835);
#405=VERTEX_POINT('',#837);
#406=VERTEX_POINT('',#839);
#407=VERTEX_POINT('',#841);
#408=VERTEX_POINT('',#843);
#409=VERTEX_POINT('',#845);
#410=VERTEX_POINT('',#847);
#411=VERTEX_POINT('',#849);
#412=VERTEX_POINT('',#851);
#413=VERTEX_POINT('',#853);
#414=VERTEX_POINT('',#855);
#415=VERTEX_POINT('',#857);
#416=VERTEX_POINT('',#859);
#417=VERTEX_POINT('',#861);
#418=VERTEX_POINT('',#863);
#419=VERTEX_POINT('',#865);
#420=VERTEX_POINT('',#867);
#421=VERTEX_POINT('',#869);
#422=VERTEX_POINT('',#872);
#423=VERTEX_POINT('',#875);
#424=VERTEX_POINT('',#878);
#425=VERTEX_POINT('',#886);
#426=VERTEX_POINT('',#896);
#427=VERTEX_POINT('',#903);
#428=VERTEX_POINT('',#905);
#429=VERTEX_POINT('',#912);
#430=VERTEX_POINT('',#916);
#431=VERTEX_POINT('',#920);
#432=VERTEX_POINT('',#924);
#433=VERTEX_POINT('',#929);
#434=VERTEX_POINT('',#945);
#435=VERTEX_POINT('',#970);
#436=CIRCLE('',#595,0.000635);
#437=CIRCLE('',#597,0.000635);
#438=CIRCLE('',#599,0.000635);
#439=CIRCLE('',#601,0.0015);
#440=CIRCLE('',#602,0.0015);
#441=CIRCLE('',#604,0.0012293670625);
#442=CIRCLE('',#606,0.00275);
#443=CIRCLE('',#608,0.00275);
#444=CIRCLE('',#610,0.00173431457505076);
#445=CIRCLE('',#633,0.000635);
#446=EDGE_LOOP('',(#147,#148,#149,#150,#151,#152));
#447=EDGE_LOOP('',(#153,#154,#155,#156,#157,#158));
#448=EDGE_LOOP('',(#159,#160,#161,#162,#163,#164));
#449=EDGE_LOOP('',(#165));
#450=EDGE_LOOP('',(#166));
#451=EDGE_LOOP('',(#167));
#452=EDGE_LOOP('',(#168,#169,#170,#171,#172,#173,#174,#175,#176,#177,#178,
#179,#180,#181,#182,#183,#184,#185,#186,#187));
#453=EDGE_LOOP('',(#188));
#454=EDGE_LOOP('',(#189));
#455=EDGE_LOOP('',(#190));
#456=EDGE_LOOP('',(#191));
#457=EDGE_LOOP('',(#192));
#458=EDGE_LOOP('',(#193));
#459=EDGE_LOOP('',(#194));
#460=EDGE_LOOP('',(#195,#196,#197,#198,#199));
#461=EDGE_LOOP('',(#200,#201,#202,#203));
#462=EDGE_LOOP('',(#204,#205,#206,#207));
#463=EDGE_LOOP('',(#208,#209,#210,#211));
#464=EDGE_LOOP('',(#212,#213,#214,#215,#216));
#465=EDGE_LOOP('',(#217,#218,#219,#220,#221));
#466=EDGE_LOOP('',(#222,#223,#224,#225));
#467=EDGE_LOOP('',(#226,#227,#228,#229));
#468=EDGE_LOOP('',(#230,#231,#232,#233));
#469=EDGE_LOOP('',(#234,#235,#236,#237,#238));
#470=EDGE_LOOP('',(#239,#240,#241,#242,#243));
#471=EDGE_LOOP('',(#244,#245,#246,#247));
#472=EDGE_LOOP('',(#248,#249,#250,#251));
#473=EDGE_LOOP('',(#252,#253,#254,#255));
#474=EDGE_LOOP('',(#256,#257,#258,#259,#260));
#475=EDGE_LOOP('',(#261,#262,#263,#264,#265));
#476=EDGE_LOOP('',(#266,#267,#268,#269));
#477=EDGE_LOOP('',(#270,#271,#272,#273));
#478=EDGE_LOOP('',(#274,#275,#276,#277));
#479=EDGE_LOOP('',(#278,#279,#280,#281,#282));
#480=EDGE_LOOP('',(#283,#284,#285,#286,#287,#288));
#481=EDGE_LOOP('',(#289,#290,#291,#292,#293,#294,#295,#296,#297,#298,#299,
#300));
#482=EDGE_LOOP('',(#301));
#483=EDGE_LOOP('',(#302));
#484=FACE_BOUND('',#446,.T.);
#485=FACE_BOUND('',#447,.T.);
#486=FACE_BOUND('',#448,.T.);
#487=FACE_BOUND('',#449,.T.);
#488=FACE_BOUND('',#450,.T.);
#489=FACE_BOUND('',#451,.T.);
#490=FACE_BOUND('',#452,.T.);
#491=FACE_BOUND('',#453,.T.);
#492=FACE_BOUND('',#454,.T.);
#493=FACE_BOUND('',#455,.T.);
#494=FACE_BOUND('',#456,.T.);
#495=FACE_BOUND('',#457,.T.);
#496=FACE_BOUND('',#458,.T.);
#497=FACE_BOUND('',#459,.T.);
#498=FACE_BOUND('',#460,.T.);
#499=FACE_BOUND('',#461,.T.);
#500=FACE_BOUND('',#462,.T.);
#501=FACE_BOUND('',#463,.T.);
#502=FACE_BOUND('',#464,.T.);
#503=FACE_BOUND('',#465,.T.);
#504=FACE_BOUND('',#466,.T.);
#505=FACE_BOUND('',#467,.T.);
#506=FACE_BOUND('',#468,.T.);
#507=FACE_BOUND('',#469,.T.);
#508=FACE_BOUND('',#470,.T.);
#509=FACE_BOUND('',#471,.T.);
#510=FACE_BOUND('',#472,.T.);
#511=FACE_BOUND('',#473,.T.);
#512=FACE_BOUND('',#474,.T.);
#513=FACE_BOUND('',#475,.T.);
#514=FACE_BOUND('',#476,.T.);
#515=FACE_BOUND('',#477,.T.);
#516=FACE_BOUND('',#478,.T.);
#517=FACE_BOUND('',#479,.T.);
#518=FACE_BOUND('',#480,.T.);
#519=FACE_BOUND('',#12,.T.);
#520=FACE_BOUND('',#481,.T.);
#521=FACE_BOUND('',#482,.T.);
#522=FACE_BOUND('',#483,.T.);
#523=PLANE('',#594);
#524=PLANE('',#596);
#525=PLANE('',#598);
#526=PLANE('',#603);
#527=PLANE('',#605);
#528=PLANE('',#612);
#529=PLANE('',#613);
#530=PLANE('',#614);
#531=PLANE('',#615);
#532=PLANE('',#616);
#533=PLANE('',#617);
#534=PLANE('',#618);
#535=PLANE('',#619);
#536=PLANE('',#620);
#537=PLANE('',#621);
#538=PLANE('',#622);
#539=PLANE('',#623);
#540=PLANE('',#624);
#541=PLANE('',#625);
#542=PLANE('',#626);
#543=PLANE('',#627);
#544=PLANE('',#628);
#545=PLANE('',#629);
#546=PLANE('',#630);
#547=PLANE('',#631);
#548=PLANE('',#632);
#549=ADVANCED_FACE('',(#484),#523,.T.);
#550=ADVANCED_FACE('',(#485),#524,.T.);
#551=ADVANCED_FACE('',(#486),#525,.T.);
#552=ADVANCED_FACE('',(#487,#488),#25,.T.);
#553=ADVANCED_FACE('',(#489),#526,.F.);
#554=ADVANCED_FACE('',(#490,#491),#527,.F.);
#555=ADVANCED_FACE('',(#492,#493),#26,.T.);
#556=ADVANCED_FACE('',(#494,#495),#22,.T.);
#557=ADVANCED_FACE('',(#496,#497),#21,.F.);
#558=ADVANCED_FACE('',(#498),#528,.T.);
#559=ADVANCED_FACE('',(#499),#529,.T.);
#560=ADVANCED_FACE('',(#500),#530,.T.);
#561=ADVANCED_FACE('',(#501),#531,.T.);
#562=ADVANCED_FACE('',(#502),#532,.T.);
#563=ADVANCED_FACE('',(#503),#533,.T.);
#564=ADVANCED_FACE('',(#504),#534,.T.);
#565=ADVANCED_FACE('',(#505),#535,.T.);
#566=ADVANCED_FACE('',(#506),#536,.T.);
#567=ADVANCED_FACE('',(#507),#537,.T.);
#568=ADVANCED_FACE('',(#508),#538,.T.);
#569=ADVANCED_FACE('',(#509),#539,.T.);
#570=ADVANCED_FACE('',(#510),#540,.T.);
#571=ADVANCED_FACE('',(#511),#541,.T.);
#572=ADVANCED_FACE('',(#512),#542,.T.);
#573=ADVANCED_FACE('',(#513),#543,.T.);
#574=ADVANCED_FACE('',(#514),#544,.T.);
#575=ADVANCED_FACE('',(#515),#545,.T.);
#576=ADVANCED_FACE('',(#516),#546,.T.);
#577=ADVANCED_FACE('',(#517),#547,.T.);
#578=ADVANCED_FACE('',(#518),#548,.T.);
#579=ADVANCED_FACE('',(#519,#520),#23,.F.);
#580=ADVANCED_FACE('',(#521,#522),#24,.T.);
#581=CLOSED_SHELL('',(#549,#550,#551,#552,#553,#554,#555,#556,#557,#558,
#559,#560,#561,#562,#563,#564,#565,#566,#567,#568,#569,#570,#571,#572,#573,
#574,#575,#576,#577,#578,#579,#580));
#582=STYLED_ITEM('',(#583),#590);
#583=PRESENTATION_STYLE_ASSIGNMENT((#584));
#584=SURFACE_STYLE_USAGE(.BOTH.,#585);
#585=SURFACE_SIDE_STYLE('',(#586));
#586=SURFACE_STYLE_FILL_AREA(#587);
#587=FILL_AREA_STYLE('',(#588));
#588=FILL_AREA_STYLE_COLOUR('',#589);
#589=COLOUR_RGB('',0.603921568627451,0.647058823529412,0.686274509803922);
#590=MANIFOLD_SOLID_BREP('PH Countersunk flat head screw M3x0.5 x 14',#581);
#591=SHAPE_DEFINITION_REPRESENTATION(#978,#592);
#592=SHAPE_REPRESENTATION('PH Countersunk flat head screw M3x0.5 x 14',
(#593),#973);
#593=AXIS2_PLACEMENT_3D('',#782,#636,#637);
#594=AXIS2_PLACEMENT_3D('',#783,#638,#639);
#595=AXIS2_PLACEMENT_3D('',#784,#640,#641);
#596=AXIS2_PLACEMENT_3D('',#796,#647,#648);
#597=AXIS2_PLACEMENT_3D('',#797,#649,#650);
#598=AXIS2_PLACEMENT_3D('',#809,#656,#657);
#599=AXIS2_PLACEMENT_3D('',#810,#658,#659);
#600=AXIS2_PLACEMENT_3D('',#822,#665,#666);
#601=AXIS2_PLACEMENT_3D('',#823,#667,#668);
#602=AXIS2_PLACEMENT_3D('',#825,#669,#670);
#603=AXIS2_PLACEMENT_3D('',#827,#671,#672);
#604=AXIS2_PLACEMENT_3D('',#828,#673,#674);
#605=AXIS2_PLACEMENT_3D('',#830,#675,#676);
#606=AXIS2_PLACEMENT_3D('',#871,#697,#698);
#607=AXIS2_PLACEMENT_3D('',#873,#699,#700);
#608=AXIS2_PLACEMENT_3D('',#874,#701,#702);
#609=AXIS2_PLACEMENT_3D('',#876,#703,#704);
#610=AXIS2_PLACEMENT_3D('',#877,#705,#706);
#611=AXIS2_PLACEMENT_3D('',#879,#707,#708);
#612=AXIS2_PLACEMENT_3D('',#880,#709,#710);
#613=AXIS2_PLACEMENT_3D('',#888,#713,#714);
#614=AXIS2_PLACEMENT_3D('',#890,#716,#717);
#615=AXIS2_PLACEMENT_3D('',#892,#719,#720);
#616=AXIS2_PLACEMENT_3D('',#894,#722,#723);
#617=AXIS2_PLACEMENT_3D('',#901,#725,#726);
#618=AXIS2_PLACEMENT_3D('',#910,#729,#730);
#619=AXIS2_PLACEMENT_3D('',#914,#733,#734);
#620=AXIS2_PLACEMENT_3D('',#918,#737,#738);
#621=AXIS2_PLACEMENT_3D('',#922,#741,#742);
#622=AXIS2_PLACEMENT_3D('',#931,#745,#746);
#623=AXIS2_PLACEMENT_3D('',#937,#748,#749);
#624=AXIS2_PLACEMENT_3D('',#939,#751,#752);
#625=AXIS2_PLACEMENT_3D('',#941,#754,#755);
#626=AXIS2_PLACEMENT_3D('',#943,#757,#758);
#627=AXIS2_PLACEMENT_3D('',#950,#760,#761);
#628=AXIS2_PLACEMENT_3D('',#956,#763,#764);
#629=AXIS2_PLACEMENT_3D('',#958,#766,#767);
#630=AXIS2_PLACEMENT_3D('',#960,#769,#770);
#631=AXIS2_PLACEMENT_3D('',#962,#772,#773);
#632=AXIS2_PLACEMENT_3D('',#967,#774,#775);
#633=AXIS2_PLACEMENT_3D('',#968,#776,#777);
#634=AXIS2_PLACEMENT_3D('',#969,#778,#779);
#635=AXIS2_PLACEMENT_3D('',#971,#780,#781);
#636=DIRECTION('',(0.,0.,1.));
#637=DIRECTION('',(1.,0.,0.));
#638=DIRECTION('',(0.,0.,1.));
#639=DIRECTION('',(1.,0.,0.));
#640=DIRECTION('',(-2.4492935982947E-16,0.,1.));
#641=DIRECTION('',(1.,0.,2.4492935982947E-16));
#642=DIRECTION('',(-0.23333590304878,0.97239619309642,0.));
#643=DIRECTION('',(1.680532278247E-16,1.,0.));
#644=DIRECTION('',(-1.,0.,0.));
#645=DIRECTION('',(-1.68053227824701E-16,-1.,0.));
#646=DIRECTION('',(-0.23333590304878,-0.97239619309642,0.));
#647=DIRECTION('',(0.,0.,1.));
#648=DIRECTION('',(1.,0.,0.));
#649=DIRECTION('',(-2.4492935982947E-16,0.,1.));
#650=DIRECTION('',(1.,0.,2.4492935982947E-16));
#651=DIRECTION('',(-0.97239619309642,-0.23333590304878,0.));
#652=DIRECTION('',(-1.,-1.680532278247E-16,0.));
#653=DIRECTION('',(0.,-1.,0.));
#654=DIRECTION('',(1.,1.68053227824701E-16,0.));
#655=DIRECTION('',(0.97239619309642,-0.23333590304878,0.));
#656=DIRECTION('',(0.,0.,1.));
#657=DIRECTION('',(1.,0.,0.));
#658=DIRECTION('',(-2.4492935982947E-16,0.,1.));
#659=DIRECTION('',(1.,0.,2.4492935982947E-16));
#660=DIRECTION('',(0.23333590304878,-0.97239619309642,0.));
#661=DIRECTION('',(-1.680532278247E-16,-1.,0.));
#662=DIRECTION('',(1.,-1.93607530800983E-16,0.));
#663=DIRECTION('',(1.68053227824701E-16,1.,0.));
#664=DIRECTION('',(0.23333590304878,0.97239619309642,0.));
#665=DIRECTION('',(0.,0.,-1.));
#666=DIRECTION('',(-1.,0.,0.));
#667=DIRECTION('',(0.,0.,1.));
#668=DIRECTION('',(1.,0.,0.));
#669=DIRECTION('',(0.,0.,-1.));
#670=DIRECTION('',(-1.,0.,0.));
#671=DIRECTION('',(0.,0.,1.));
#672=DIRECTION('',(1.,0.,0.));
#673=DIRECTION('',(0.,0.,1.));
#674=DIRECTION('',(1.,0.,0.));
#675=DIRECTION('',(0.,0.,-1.));
#676=DIRECTION('',(-1.,0.,0.));
#677=DIRECTION('',(-1.680532278247E-16,-1.,0.));
#678=DIRECTION('',(0.23333590304878,-0.97239619309642,0.));
#679=DIRECTION('',(0.97239619309642,-0.23333590304878,0.));
#680=DIRECTION('',(1.,1.68053227824701E-16,0.));
#681=DIRECTION('',(0.,-1.,0.));
#682=DIRECTION('',(-1.,-1.680532278247E-16,0.));
#683=DIRECTION('',(-0.97239619309642,-0.23333590304878,0.));
#684=DIRECTION('',(-0.23333590304878,-0.97239619309642,0.));
#685=DIRECTION('',(-1.68053227824701E-16,-1.,0.));
#686=DIRECTION('',(-1.,0.,0.));
#687=DIRECTION('',(1.680532278247E-16,1.,0.));
#688=DIRECTION('',(-0.23333590304878,0.97239619309642,0.));
#689=DIRECTION('',(-0.97239619309642,0.23333590304878,0.));
#690=DIRECTION('',(-1.,-1.680532278247E-16,0.));
#691=DIRECTION('',(0.,1.,0.));
#692=DIRECTION('',(1.,1.680532278247E-16,0.));
#693=DIRECTION('',(0.97239619309642,0.23333590304878,0.));
#694=DIRECTION('',(0.23333590304878,0.97239619309642,0.));
#695=DIRECTION('',(1.68053227824701E-16,1.,0.));
#696=DIRECTION('',(1.,-1.93607530800983E-16,0.));
#697=DIRECTION('',(0.,0.,-1.));
#698=DIRECTION('',(-1.,0.,0.));
#699=DIRECTION('',(0.,0.,-1.));
#700=DIRECTION('',(-1.,0.,0.));
#701=DIRECTION('',(0.,0.,-1.));
#702=DIRECTION('',(-1.,0.,0.));
#703=DIRECTION('',(0.,0.,1.));
#704=DIRECTION('',(1.,0.,0.));
#705=DIRECTION('',(0.,0.,-1.));
#706=DIRECTION('',(-1.,0.,0.));
#707=DIRECTION('',(0.,0.,-1.));
#708=DIRECTION('',(-1.,0.,0.));
#709=DIRECTION('',(0.965148099328524,0.231596652610819,0.121869343405147));
#710=DIRECTION('',(-0.23333590304878,0.97239619309642,0.));
#711=DIRECTION('',(0.121856679707104,0.0144157337666252,-0.992443014097399));
#712=DIRECTION('',(-0.100794143856162,-0.100794143856162,0.989788402199483));
#713=DIRECTION('',(0.992546151641322,-1.66800584548308E-16,0.121869343405147));
#714=DIRECTION('',(0.121869343405147,0.,-0.992546151641322));
#715=DIRECTION('',(-0.109413835515777,-0.440411117224888,0.89110418045392));
#716=DIRECTION('',(1.73566524183125E-16,0.896486430383441,0.44307119082418));
#717=DIRECTION('',(0.,-0.44307119082418,0.896486430383441));
#718=DIRECTION('',(-0.109413835515777,0.440411117224888,-0.89110418045392));
#719=DIRECTION('',(-0.992546151641322,1.66800584548309E-16,0.121869343405147));
#720=DIRECTION('',(0.121869343405147,0.,0.992546151641322));
#721=DIRECTION('',(-0.121856679707104,0.0144157337666252,-0.992443014097399));
#722=DIRECTION('',(-0.965148099328524,0.231596652610818,0.121869343405147));
#723=DIRECTION('',(-0.23333590304878,-0.97239619309642,0.));
#724=DIRECTION('',(0.100794143856162,-0.100794143856162,0.989788402199483));
#725=DIRECTION('',(-0.231596652610819,0.965148099328524,0.121869343405147));
#726=DIRECTION('',(-0.97239619309642,-0.23333590304878,0.));
#727=DIRECTION('',(-0.0144157337666252,0.121856679707104,-0.992443014097399));
#728=DIRECTION('',(0.97239619309642,0.23333590304878,0.));
#729=DIRECTION('',(-1.66800584548309E-16,0.992546151641322,0.121869343405147));
#730=DIRECTION('',(0.,-0.121869343405147,0.992546151641322));
#731=DIRECTION('',(0.440411117224888,-0.109413835515777,0.89110418045392));
#732=DIRECTION('',(1.,1.680532278247E-16,0.));
#733=DIRECTION('',(-0.896486430383441,0.,0.44307119082418));
#734=DIRECTION('',(0.44307119082418,0.,0.896486430383441));
#735=DIRECTION('',(-0.440411117224888,-0.109413835515777,-0.89110418045392));
#736=DIRECTION('',(0.,1.,0.));
#737=DIRECTION('',(1.66800584548309E-16,-0.992546151641322,0.121869343405147));
#738=DIRECTION('',(0.,-0.121869343405147,-0.992546151641322));
#739=DIRECTION('',(-0.0144157337666251,-0.121856679707104,-0.992443014097399));
#740=DIRECTION('',(-1.,-1.680532278247E-16,0.));
#741=DIRECTION('',(-0.231596652610818,-0.965148099328524,0.121869343405147));
#742=DIRECTION('',(0.97239619309642,-0.23333590304878,0.));
#743=DIRECTION('',(0.100794143856162,0.100794143856162,0.989788402199483));
#744=DIRECTION('',(-0.97239619309642,0.23333590304878,0.));
#745=DIRECTION('',(-0.965148099328524,-0.231596652610819,0.121869343405147));
#746=DIRECTION('',(0.23333590304878,-0.97239619309642,0.));
#747=DIRECTION('',(0.121856679707104,0.0144157337666252,0.992443014097399));
#748=DIRECTION('',(-0.992546151641322,1.66800584548308E-16,0.121869343405147));
#749=DIRECTION('',(0.121869343405147,0.,0.992546151641322));
#750=DIRECTION('',(0.109413835515777,0.440411117224888,0.89110418045392));
#751=DIRECTION('',(0.,-0.896486430383441,0.44307119082418));
#752=DIRECTION('',(0.,-0.44307119082418,-0.896486430383441));
#753=DIRECTION('',(0.109413835515777,-0.440411117224888,-0.89110418045392));
#754=DIRECTION('',(0.992546151641322,-1.66800584548309E-16,0.121869343405147));
#755=DIRECTION('',(0.121869343405147,0.,-0.992546151641322));
#756=DIRECTION('',(-0.121856679707104,0.0144157337666251,0.992443014097399));
#757=DIRECTION('',(0.965148099328524,-0.231596652610818,0.121869343405147));
#758=DIRECTION('',(0.23333590304878,0.97239619309642,0.));
#759=DIRECTION('',(-0.100794143856162,0.100794143856162,0.989788402199484));
#760=DIRECTION('',(0.231596652610819,-0.965148099328524,0.121869343405147));
#761=DIRECTION('',(0.97239619309642,0.23333590304878,0.));
#762=DIRECTION('',(-0.0144157337666253,0.121856679707104,0.992443014097399));
#763=DIRECTION('',(1.66800584548309E-16,-0.992546151641322,0.121869343405147));
#764=DIRECTION('',(0.,-0.121869343405147,-0.992546151641322));
#765=DIRECTION('',(-0.440411117224888,0.109413835515777,0.89110418045392));
#766=DIRECTION('',(0.896486430383441,0.,0.44307119082418));
#767=DIRECTION('',(0.44307119082418,0.,-0.896486430383441));
#768=DIRECTION('',(0.440411117224888,0.109413835515777,-0.89110418045392));
#769=DIRECTION('',(-1.66800584548309E-16,0.992546151641322,0.121869343405147));
#770=DIRECTION('',(0.,-0.121869343405147,0.992546151641322));
#771=DIRECTION('',(-0.0144157337666252,-0.121856679707104,0.992443014097399));
#772=DIRECTION('',(0.231596652610818,0.965148099328524,0.121869343405147));
#773=DIRECTION('',(-0.97239619309642,0.23333590304878,0.));
#774=DIRECTION('',(0.,0.,1.));
#775=DIRECTION('',(1.,0.,0.));
#776=DIRECTION('',(-2.4492935982947E-16,0.,1.));
#777=DIRECTION('',(1.,0.,2.4492935982947E-16));
#778=DIRECTION('',(-2.4492935982947E-16,0.,1.));
#779=DIRECTION('',(1.,0.,2.4492935982947E-16));
#780=DIRECTION('',(0.,0.,1.));
#781=DIRECTION('',(1.,0.,0.));
#782=CARTESIAN_POINT('',(0.,0.,0.));
#783=CARTESIAN_POINT('',(-0.000193571022995627,0.000283604568855426,-0.00136));
#784=CARTESIAN_POINT('',(2.45166170203797E-19,0.,-0.00136));
#785=CARTESIAN_POINT('',(0.000289639876140603,0.00056509622379667,-0.00136));
#786=CARTESIAN_POINT('',(-0.000289639876140603,0.00056509622379667,-0.00136));
#787=CARTESIAN_POINT('',(0.000327200180956244,0.000408568673012363,-0.00136));
#788=CARTESIAN_POINT('',(0.00028,0.000605269119345812,-0.00136));
#789=CARTESIAN_POINT('',(0.00028,0.000283604568855426,-0.00136));
#790=CARTESIAN_POINT('',(0.00028,0.000927846134533064,-0.00136));
#791=CARTESIAN_POINT('',(-0.000193571022995627,0.000927846134533064,-0.00136));
#792=CARTESIAN_POINT('',(-0.00028,0.000927846134533064,-0.00136));
#793=CARTESIAN_POINT('',(-0.00028,0.000283604568855426,-0.00136));
#794=CARTESIAN_POINT('',(-0.00028,0.000605269119345813,-0.00136));
#795=CARTESIAN_POINT('',(-0.000348278378834831,0.000320728100230101,-0.00136));
#796=CARTESIAN_POINT('',(-0.000193571022995627,0.000283604568855426,-0.00136));
#797=CARTESIAN_POINT('',(2.45166170203797E-19,0.,-0.00136));
#798=CARTESIAN_POINT('',(-0.00056509622379667,0.000289639876140603,-0.00136));
#799=CARTESIAN_POINT('',(-0.00056509622379667,-0.000289639876140603,-0.00136));
#800=CARTESIAN_POINT('',(-0.000215168332393537,0.000373608469520739,-0.00136));
#801=CARTESIAN_POINT('',(-0.000605269119345812,0.00028,-0.00136));
#802=CARTESIAN_POINT('',(-0.000193571022995627,0.00028,-0.00136));
#803=CARTESIAN_POINT('',(-0.000927846134533064,0.00028,-0.00136));
#804=CARTESIAN_POINT('',(-0.000927846134533064,0.000283604568855426,-0.00136));
#805=CARTESIAN_POINT('',(-0.000927846134533064,-0.00028,-0.00136));
#806=CARTESIAN_POINT('',(-0.000193571022995626,-0.00028,-0.00136));
#807=CARTESIAN_POINT('',(-0.000605269119345813,-0.00028,-0.00136));
#808=CARTESIAN_POINT('',(-0.000343865217838471,-0.000342726402933008,-0.00136));
#809=CARTESIAN_POINT('',(-0.000193571022995627,0.000283604568855426,-0.00136));
#810=CARTESIAN_POINT('',(2.45166170203797E-19,0.,-0.00136));
#811=CARTESIAN_POINT('',(-0.000289639876140603,-0.00056509622379667,-0.00136));
#812=CARTESIAN_POINT('',(0.000289639876140603,-0.00056509622379667,-0.00136));
#813=CARTESIAN_POINT('',(-0.000476975264279766,0.00021559897089302,-0.00136));
#814=CARTESIAN_POINT('',(-0.00028,-0.000605269119345812,-0.00136));
#815=CARTESIAN_POINT('',(-0.00028,0.000283604568855426,-0.00136));
#816=CARTESIAN_POINT('',(-0.00028,-0.000927846134533065,-0.00136));
#817=CARTESIAN_POINT('',(-0.000193571022995627,-0.000927846134533065,-0.00136));
#818=CARTESIAN_POINT('',(0.00028,-0.000927846134533065,-0.00136));
#819=CARTESIAN_POINT('',(0.00028,0.000283604568855426,-0.00136));
#820=CARTESIAN_POINT('',(0.00028,-0.000605269119345813,-0.00136));
#821=CARTESIAN_POINT('',(0.000455897066401178,0.000127758398110759,-0.00136));
#822=CARTESIAN_POINT('',(0.,0.,-0.007));
#823=CARTESIAN_POINT('',(0.,0.,-0.0137293670625));
#824=CARTESIAN_POINT('',(0.0015,0.,-0.0137293670625));
#825=CARTESIAN_POINT('',(0.,0.,-0.00198137084989848));
#826=CARTESIAN_POINT('',(-0.0015,0.,-0.00198137084989848));
#827=CARTESIAN_POINT('',(-0.00075,0.,-0.014));
#828=CARTESIAN_POINT('',(0.,0.,-0.014));
#829=CARTESIAN_POINT('',(0.0012293670625,0.,-0.014));
#830=CARTESIAN_POINT('',(-0.001375,0.,-8.13151629364128E-20));
#831=CARTESIAN_POINT('',(-0.00044698700282795,-1.55955579638037E-19,-8.13151629364128E-20));
#832=CARTESIAN_POINT('',(-0.00044698700282795,-0.0016,-8.13151629364128E-20));
#833=CARTESIAN_POINT('',(-0.00044698700282795,-0.00062502380313533,-8.13151629364128E-20));
#834=CARTESIAN_POINT('',(-0.00063932800848542,0.000176531633614414,-8.13151629364128E-20));
#835=CARTESIAN_POINT('',(-0.000481441072441301,-0.000481441072441301,-8.13151629364128E-20));
#836=CARTESIAN_POINT('',(-0.001435586154141,-0.00025248470068813,-8.13151629364128E-20));
#837=CARTESIAN_POINT('',(-0.000625023803135331,-0.00044698700282795,-8.13151629364128E-20));
#838=CARTESIAN_POINT('',(-0.001375,-0.00044698700282795,-8.13151629364128E-20));
#839=CARTESIAN_POINT('',(-0.0016,-0.00044698700282795,-8.13151629364128E-20));
#840=CARTESIAN_POINT('',(-0.0016,0.,-8.13151629364128E-20));
#841=CARTESIAN_POINT('',(-0.0016,0.00044698700282795,-8.13151629364128E-20));
#842=CARTESIAN_POINT('',(-0.001375,0.00044698700282795,-8.13151629364128E-20));
#843=CARTESIAN_POINT('',(-0.00062502380313533,0.00044698700282795,-8.13151629364128E-20));
#844=CARTESIAN_POINT('',(-0.001435586154141,0.00025248470068813,-8.13151629364128E-20));
#845=CARTESIAN_POINT('',(-0.000481441072441301,0.000481441072441301,-8.13151629364128E-20));
#846=CARTESIAN_POINT('',(-0.00063932800848542,-0.000176531633614414,-8.13151629364128E-20));
#847=CARTESIAN_POINT('',(-0.00044698700282795,0.000625023803135331,-8.13151629364128E-20));
#848=CARTESIAN_POINT('',(-0.00044698700282795,-1.55955579638038E-19,-8.13151629364128E-20));
#849=CARTESIAN_POINT('',(-0.00044698700282795,0.0016,-8.13151629364128E-20));
#850=CARTESIAN_POINT('',(-0.001375,0.0016,-8.13151629364128E-20));
#851=CARTESIAN_POINT('',(0.00044698700282795,0.0016,-8.13151629364128E-20));
#852=CARTESIAN_POINT('',(0.00044698700282795,-3.06190796879888E-19,-8.13151629364128E-20));
#853=CARTESIAN_POINT('',(0.00044698700282795,0.00062502380313533,-8.13151629364128E-20));
#854=CARTESIAN_POINT('',(0.000489602488443549,0.000447429461938295,-8.13151629364128E-20));
#855=CARTESIAN_POINT('',(0.000481441072441301,0.000481441072441301,-8.13151629364128E-20));
#856=CARTESIAN_POINT('',(-0.00116468832581712,0.000876445796240838,-8.13151629364128E-20));
#857=CARTESIAN_POINT('',(0.000625023803135331,0.00044698700282795,-8.13151629364128E-20));
#858=CARTESIAN_POINT('',(-0.001375,0.00044698700282795,-8.13151629364128E-20));
#859=CARTESIAN_POINT('',(0.0016,0.00044698700282795,-8.13151629364128E-20));
#860=CARTESIAN_POINT('',(0.0016,0.,-8.13151629364128E-20));
#861=CARTESIAN_POINT('',(0.0016,-0.00044698700282795,-8.13151629364128E-20));
#862=CARTESIAN_POINT('',(-0.001375,-0.00044698700282795,-8.13151629364128E-20));
#863=CARTESIAN_POINT('',(0.00062502380313533,-0.00044698700282795,-8.13151629364128E-20));
#864=CARTESIAN_POINT('',(-0.00116468832581712,-0.000876445796240839,-8.13151629364128E-20));
#865=CARTESIAN_POINT('',(0.000481441072441301,-0.000481441072441301,-8.13151629364128E-20));
#866=CARTESIAN_POINT('',(0.000489602488443549,-0.000447429461938294,-8.13151629364128E-20));
#867=CARTESIAN_POINT('',(0.00044698700282795,-0.000625023803135331,-8.13151629364128E-20));
#868=CARTESIAN_POINT('',(0.00044698700282795,-3.06190796879889E-19,-8.13151629364128E-20));
#869=CARTESIAN_POINT('',(0.00044698700282795,-0.0016,-8.13151629364128E-20));
#870=CARTESIAN_POINT('',(-0.001375,-0.0016,-8.13151629364128E-20));
#871=CARTESIAN_POINT('',(0.,0.,0.));
#872=CARTESIAN_POINT('',(-0.00275,0.,0.));
#873=CARTESIAN_POINT('',(0.,0.,-0.007));
#874=CARTESIAN_POINT('',(0.,0.,-0.0004));
#875=CARTESIAN_POINT('',(-0.00275,0.,-0.0004));
#876=CARTESIAN_POINT('',(0.,0.,-0.0004));
#877=CARTESIAN_POINT('',(0.,0.,-0.00141568542494924));
#878=CARTESIAN_POINT('',(-0.00173431457505076,0.,-0.00141568542494924));
#879=CARTESIAN_POINT('',(0.,0.,-0.00198137084989848));
#880=CARTESIAN_POINT('',(-0.000476975264279766,0.00021559897089302,-0.00136));
#881=CARTESIAN_POINT('',(-0.000281482914860088,-0.000605444549251444,-0.00134792262765625));
#882=CARTESIAN_POINT('',(-0.000289639876140602,-0.000565096223796673,-0.00136));
#883=CARTESIAN_POINT('',(-0.00030372280373214,-0.000489183286221757,-0.00139273236174736));
#884=CARTESIAN_POINT('',(-0.000318233619786222,-0.000412632640841481,-0.00142328792713338));
#885=CARTESIAN_POINT('',(-0.000334084627522514,-0.000334084627522513,-0.00144702553729808));
#886=CARTESIAN_POINT('',(-0.000334084627522514,-0.000334084627522513,-0.00144702553729808));
#887=CARTESIAN_POINT('',(-0.000338633922745226,-0.000338633922745226,-0.00140235191363947));
#888=CARTESIAN_POINT('',(-0.00028,0.000283604568855426,-0.00136));
#889=CARTESIAN_POINT('',(-0.000221623740712308,-0.000692870791139724,-0.00183543647880823));
#890=CARTESIAN_POINT('',(-0.000193571022995627,-0.000927846134533065,-0.00136));
#891=CARTESIAN_POINT('',(0.000221623740712307,-0.000692870791139724,-0.00183543647880823));
#892=CARTESIAN_POINT('',(0.00028,0.000283604568855426,-0.00136));
#893=CARTESIAN_POINT('',(0.000278438556966925,-0.000605084399500249,-0.00137271693298891));
#894=CARTESIAN_POINT('',(0.000455897066401178,0.000127758398110759,-0.00136));
#895=CARTESIAN_POINT('',(0.000340127282535441,-0.000340127282535441,-0.0013876872699993));
#896=CARTESIAN_POINT('',(0.000334084627522513,-0.000334084627522516,-0.00144702553729808));
#897=CARTESIAN_POINT('',(0.000289639876140603,-0.00056509622379667,-0.00136));
#898=CARTESIAN_POINT('',(0.000303722803732141,-0.000489183286221755,-0.00139273236174736));
#899=CARTESIAN_POINT('',(0.000318233619786221,-0.00041263264084148,-0.00142328792713338));
#900=CARTESIAN_POINT('',(0.000334084627522513,-0.000334084627522513,-0.00144702553729808));
#901=CARTESIAN_POINT('',(-2.21986302741942E-5,-0.00043056697571527,-0.00136));
#902=CARTESIAN_POINT('',(0.000605403217149603,-0.000281133533220748,-0.00135076811276261));
#903=CARTESIAN_POINT('',(0.000605269119345812,-0.00028,-0.00136));
#904=CARTESIAN_POINT('',(-2.21986302741942E-5,-0.00043056697571527,-0.00136));
#905=CARTESIAN_POINT('',(0.00056509622379667,-0.000289639876140603,-0.00136));
#906=CARTESIAN_POINT('',(0.000565096223796671,-0.000289639876140603,-0.00136));
#907=CARTESIAN_POINT('',(0.000489183286221755,-0.000303722803732141,-0.00139273236174736));
#908=CARTESIAN_POINT('',(0.000412632640841481,-0.000318233619786221,-0.00142328792713338));
#909=CARTESIAN_POINT('',(0.000334084627522513,-0.000334084627522513,-0.00144702553729808));
#910=CARTESIAN_POINT('',(-0.000193571022995626,-0.00028,-0.00136));
#911=CARTESIAN_POINT('',(0.000710333873455953,-0.000225962193447529,-0.00180010261677119));
#912=CARTESIAN_POINT('',(0.000927846134533064,-0.00028,-0.00136));
#913=CARTESIAN_POINT('',(-0.000193571022995626,-0.00028,-0.00136));
#914=CARTESIAN_POINT('',(0.000927846134533064,0.000283604568855426,-0.00136));
#915=CARTESIAN_POINT('',(0.000710333873455953,0.000225962193447529,-0.00180010261677119));
#916=CARTESIAN_POINT('',(0.000927846134533064,0.00028,-0.00136));
#917=CARTESIAN_POINT('',(0.000927846134533064,0.000283604568855426,-0.00136));
#918=CARTESIAN_POINT('',(-0.000193571022995627,0.00028,-0.00136));
#919=CARTESIAN_POINT('',(0.000605103109675729,0.000278596714706086,-0.00137142884157092));
#920=CARTESIAN_POINT('',(0.000605269119345813,0.00028,-0.00136));
#921=CARTESIAN_POINT('',(-0.000193571022995627,0.00028,-0.00136));
#922=CARTESIAN_POINT('',(-0.000150895515719129,0.000461449042303,-0.00136));
#923=CARTESIAN_POINT('',(0.000343453494721053,0.000343453494721053,-0.00135502419932258));
#924=CARTESIAN_POINT('',(0.000334084627522516,0.000334084627522512,-0.00144702553729808));
#925=CARTESIAN_POINT('',(0.00056509622379667,0.000289639876140603,-0.00136));
#926=CARTESIAN_POINT('',(0.000489183286221755,0.000303722803732141,-0.00139273236174736));
#927=CARTESIAN_POINT('',(0.00041263264084148,0.000318233619786221,-0.00142328792713338));
#928=CARTESIAN_POINT('',(0.000334084627522513,0.000334084627522513,-0.00144702553729808));
#929=CARTESIAN_POINT('',(0.00056509622379667,0.000289639876140603,-0.00136));
#930=CARTESIAN_POINT('',(-0.000150895515719129,0.000461449042303,-0.00136));
#931=CARTESIAN_POINT('',(0.000327200180956244,0.000408568673012363,-0.00136));
#932=CARTESIAN_POINT('',(0.000279434946856885,0.000605202273148339,-0.00136460198854775));
#933=CARTESIAN_POINT('',(0.000289639876140603,0.00056509622379667,-0.00136));
#934=CARTESIAN_POINT('',(0.000303722803732141,0.000489183286221754,-0.00139273236174736));
#935=CARTESIAN_POINT('',(0.000318233619786222,0.000412632640841481,-0.00142328792713338));
#936=CARTESIAN_POINT('',(0.000334084627522514,0.000334084627522513,-0.00144702553729808));
#937=CARTESIAN_POINT('',(0.00028,0.000283604568855426,-0.00136));
#938=CARTESIAN_POINT('',(0.000248955886874544,0.000802887782781775,-0.00161283401184296));
#939=CARTESIAN_POINT('',(-0.000193571022995627,0.000927846134533064,-0.00136));
#940=CARTESIAN_POINT('',(-0.000248955886874543,0.000802887782781775,-0.00161283401184296));
#941=CARTESIAN_POINT('',(-0.00028,0.000283604568855426,-0.00136));
#942=CARTESIAN_POINT('',(-0.000280514029124252,0.000605329929364774,-0.00135581356873803));
#943=CARTESIAN_POINT('',(-0.000348278378834831,0.000320728100230101,-0.00136));
#944=CARTESIAN_POINT('',(-0.000341960134930837,0.000341960134930837,-0.00136968884296275));
#945=CARTESIAN_POINT('',(-0.000334084627522514,0.000334084627522513,-0.00144702553729808));
#946=CARTESIAN_POINT('',(-0.000289639876140602,0.000565096223796675,-0.00136));
#947=CARTESIAN_POINT('',(-0.00030372280373214,0.000489183286221759,-0.00139273236174736));
#948=CARTESIAN_POINT('',(-0.000318233619786221,0.000412632640841481,-0.00142328792713338));
#949=CARTESIAN_POINT('',(-0.000334084627522513,0.000334084627522513,-0.00144702553729808));
#950=CARTESIAN_POINT('',(-0.000215168332393537,0.000373608469520739,-0.00136));
#951=CARTESIAN_POINT('',(-0.000605183562972857,0.000279276789117723,-0.00136589007996574));
#952=CARTESIAN_POINT('',(-0.00056509622379667,0.000289639876140603,-0.00136));
#953=CARTESIAN_POINT('',(-0.000489183286221754,0.000303722803732141,-0.00139273236174736));
#954=CARTESIAN_POINT('',(-0.000412632640841482,0.000318233619786221,-0.00142328792713338));
#955=CARTESIAN_POINT('',(-0.000334084627522513,0.000334084627522513,-0.00144702553729808));
#956=CARTESIAN_POINT('',(-0.000193571022995627,0.00028,-0.00136));
#957=CARTESIAN_POINT('',(-0.000785424700465546,0.000244617434139321,-0.00164816787388));
#958=CARTESIAN_POINT('',(-0.000927846134533064,0.000283604568855426,-0.00136));
#959=CARTESIAN_POINT('',(-0.000785424700465546,-0.000244617434139321,-0.00164816787388));
#960=CARTESIAN_POINT('',(-0.000193571022995626,-0.00028,-0.00136));
#961=CARTESIAN_POINT('',(-0.000605324984669753,-0.000280472231451849,-0.00135615398346195));
#962=CARTESIAN_POINT('',(-0.000343865217838471,-0.000342726402933008,-0.00136));
#963=CARTESIAN_POINT('',(-0.000565096223796672,-0.000289639876140603,-0.00136));
#964=CARTESIAN_POINT('',(-0.000489183286221757,-0.000303722803732141,-0.00139273236174736));
#965=CARTESIAN_POINT('',(-0.00041263264084148,-0.000318233619786221,-0.00142328792713338));
#966=CARTESIAN_POINT('',(-0.000334084627522512,-0.000334084627522513,-0.00144702553729808));
#967=CARTESIAN_POINT('',(-0.000193571022995627,0.000283604568855426,-0.00136));
#968=CARTESIAN_POINT('',(2.45166170203797E-19,0.,-0.00136));
#969=CARTESIAN_POINT('',(2.45166170203797E-19,0.,-0.00136));
#970=CARTESIAN_POINT('',(8.13151629364128E-20,0.,-0.0017));
#971=CARTESIAN_POINT('',(0.,0.,-0.014));
#972=MECHANICAL_DESIGN_GEOMETRIC_PRESENTATION_REPRESENTATION('',(#582),
#973);
#973=(
GEOMETRIC_REPRESENTATION_CONTEXT(3)
GLOBAL_UNCERTAINTY_ASSIGNED_CONTEXT((#974))
GLOBAL_UNIT_ASSIGNED_CONTEXT((#977,#976,#975))
REPRESENTATION_CONTEXT('PH Countersunk flat head screw M3x0.5 x 14',
'TOP_LEVEL_ASSEMBLY_PART')
);
#974=UNCERTAINTY_MEASURE_WITH_UNIT(LENGTH_MEASURE(2.E-5),#977,
'DISTANCE_ACCURACY_VALUE','Maximum Tolerance applied to model');
#975=(
NAMED_UNIT(*)
SI_UNIT($,.STERADIAN.)
SOLID_ANGLE_UNIT()
);
#976=(
NAMED_UNIT(*)
PLANE_ANGLE_UNIT()
SI_UNIT($,.RADIAN.)
);
#977=(
LENGTH_UNIT()
NAMED_UNIT(*)
SI_UNIT($,.METRE.)
);
#978=PRODUCT_DEFINITION_SHAPE('','',#979);
#979=PRODUCT_DEFINITION('','',#981,#980);
#980=PRODUCT_DEFINITION_CONTEXT('',#987,'design');
#981=PRODUCT_DEFINITION_FORMATION_WITH_SPECIFIED_SOURCE('','',#983,
 .NOT_KNOWN.);
#982=PRODUCT_RELATED_PRODUCT_CATEGORY('','',(#983));
#983=PRODUCT('PH Countersunk flat head screw M3x0.5 x 14',
'PH Countersunk flat head screw M3x0.5 x 14',
'PH Countersunk flat head screw M3x0.5 x 14',(#985));
#984=PRODUCT_CATEGORY('','');
#985=PRODUCT_CONTEXT('',#987,'mechanical');
#986=APPLICATION_PROTOCOL_DEFINITION('international standard',
'ap242_managed_model_based_3d_engineering',2020,#987);
#987=APPLICATION_CONTEXT('managed model based 3d engineering');
ENDSEC;
END-ISO-10303-21;
